<?xml version="1.0" encoding="UTF-8" standalone="no"?>
<!DOCTYPE svg PUBLIC "-//W3C//DTD SVG 1.1//EN" "http://www.w3.org/Graphics/SVG/1.1/DTD/svg11.dtd">
<svg width="100%" height="100%" viewBox="0 0 48 48" version="1.1" xmlns="http://www.w3.org/2000/svg" xmlns:xlink="http://www.w3.org/1999/xlink" xml:space="preserve" xmlns:serif="http://www.serif.com/" style="fill-rule:evenodd;clip-rule:evenodd;stroke-linejoin:round;stroke-miterlimit:2;">
    <g transform="matrix(1,0,0,1,-0.247361,0.247361)">
        <path d="M19.111,16.5L19.111,31.424C19.111,31.976 19.559,32.424 20.111,32.424C20.663,32.424 21.111,31.976 21.111,31.424L21.111,16.5C21.111,15.948 20.663,15.5 20.111,15.5C19.559,15.5 19.111,15.948 19.111,16.5Z" style="fill:white;"/>
    </g>
    <g transform="matrix(1,0,0,0.707182,3.95778,7.305)">
        <path d="M19.245,16.5L19.245,31.424C19.245,32.1 19.633,32.649 20.111,32.649C20.589,32.649 20.977,32.1 20.977,31.424L20.977,16.5C20.977,15.824 20.589,15.275 20.111,15.275C19.633,15.275 19.245,15.824 19.245,16.5Z" style="fill:white;"/>
    </g>
    <path d="M28.031,20.034C27.848,19.931 27.624,19.933 27.443,20.038C27.261,20.144 27.15,20.338 27.15,20.548C27.15,22.384 27.151,26.245 27.152,28.101C27.152,28.313 27.266,28.509 27.45,28.614C27.635,28.719 27.861,28.716 28.044,28.608C29.64,27.657 32.967,25.676 34.551,24.733C34.732,24.625 34.841,24.429 34.839,24.219C34.837,24.008 34.722,23.815 34.539,23.712C32.947,22.812 29.619,20.932 28.031,20.034ZM28.151,27.38L33.432,24.235L28.15,21.25L28.151,27.38Z" style="fill:white;"/>
    <path d="M36.141,5C39.926,5 43,8.074 43,11.859L43,36.141C43,39.926 39.926,43 36.141,43L11.859,43C8.074,43 5,39.926 5,36.141L5,11.859C5,8.074 8.074,5 11.859,5L36.141,5ZM36.141,7L11.859,7C9.177,7 7,9.177 7,11.859L7,36.141C7,38.823 9.177,41 11.859,41L36.141,41C38.823,41 41,38.823 41,36.141L41,11.859C41,9.177 38.823,7 36.141,7Z" style="fill:white;"/>
    <path d="M14.823,14.273L14.823,34.062C14.823,34.614 15.271,35.062 15.823,35.062C16.375,35.062 16.823,34.614 16.823,34.062L16.823,14.273C16.823,13.721 16.375,13.273 15.823,13.273C15.271,13.273 14.823,13.721 14.823,14.273Z" style="fill:white;"/>
</svg>
