<?xml version="1.0" encoding="UTF-8" standalone="no"?>
<!DOCTYPE svg PUBLIC "-//W3C//DTD SVG 1.1//EN" "http://www.w3.org/Graphics/SVG/1.1/DTD/svg11.dtd">
<svg width="100%" height="100%" viewBox="0 0 48 48" version="1.1" xmlns="http://www.w3.org/2000/svg" xmlns:xlink="http://www.w3.org/1999/xlink" xml:space="preserve" xmlns:serif="http://www.serif.com/" style="fill-rule:evenodd;clip-rule:evenodd;stroke-linejoin:round;stroke-miterlimit:2;">
    <path d="M36.109,5C39.912,5 43,8.088 43,11.891L43,36.109C43,39.912 39.912,43 36.109,43L11.891,43C8.088,43 5,39.912 5,36.109L5,11.891C5,8.088 8.088,5 11.891,5L36.109,5ZM14.823,14.273L14.823,34.062C14.823,34.614 15.271,35.062 15.823,35.062C16.375,35.062 16.823,34.614 16.823,34.062L16.823,14.273C16.823,13.721 16.375,13.273 15.823,13.273C15.271,13.273 14.823,13.721 14.823,14.273ZM18.864,16.747L18.864,31.671C18.864,32.223 19.312,32.671 19.864,32.671C20.416,32.671 20.864,32.223 20.864,31.671L20.864,16.747C20.864,16.195 20.416,15.747 19.864,15.747C19.312,15.747 18.864,16.195 18.864,16.747ZM23.203,18.974L23.203,29.527C23.203,30.005 23.591,30.394 24.069,30.394C24.547,30.394 24.935,30.005 24.935,29.527L24.935,18.974C24.935,18.496 24.547,18.107 24.069,18.107C23.591,18.107 23.203,18.496 23.203,18.974ZM28.031,20.034C27.848,19.931 27.624,19.933 27.443,20.038C27.261,20.144 27.15,20.338 27.15,20.548C27.15,22.384 27.151,26.245 27.152,28.101C27.152,28.313 27.266,28.509 27.45,28.614C27.635,28.719 27.861,28.716 28.044,28.608C29.64,27.657 32.967,25.676 34.551,24.733C34.732,24.625 34.841,24.429 34.839,24.219C34.837,24.008 34.722,23.815 34.539,23.712C32.947,22.812 29.619,20.932 28.031,20.034ZM28.151,27.38L33.432,24.235L28.15,21.25L28.151,27.38Z" style="fill:white;"/>
</svg>
