<?xml version="1.0" encoding="UTF-8" standalone="no"?>
<!DOCTYPE svg PUBLIC "-//W3C//DTD SVG 1.1//EN" "http://www.w3.org/Graphics/SVG/1.1/DTD/svg11.dtd">
<svg width="100%" height="100%" viewBox="0 0 48 48" version="1.1" xmlns="http://www.w3.org/2000/svg" xmlns:xlink="http://www.w3.org/1999/xlink" xml:space="preserve" xmlns:serif="http://www.serif.com/" style="fill-rule:evenodd;clip-rule:evenodd;stroke-linejoin:round;stroke-miterlimit:2;">
    <path d="M36.114,5C39.915,5 43,8.085 43,11.886L43,36.114C43,39.915 39.915,43 36.114,43L11.886,43C8.085,43 5,39.915 5,36.114L5,11.886C5,8.085 8.085,5 11.886,5L36.114,5ZM35.05,31.797L35.05,28.455C38.434,28.455 41.178,25.713 41.178,22.33C41.178,18.948 38.434,16.203 35.05,16.203L29.76,16.203L29.76,18.813C28.33,17.213 26.254,16.203 23.939,16.203L15.917,16.203L6.822,31.797L13.01,31.797L14.959,28.455L18.899,28.455L18.899,31.797L23.939,31.797C26.254,31.797 28.33,30.79 29.76,29.19L29.76,31.797L35.05,31.797ZM23.939,18.153C26.885,18.153 29.322,20.333 29.726,23.166L31.709,23.166L31.709,18.153L35.05,18.153C37.358,18.153 39.228,20.023 39.228,22.33C39.228,24.636 37.358,26.506 35.05,26.506L33.1,26.506L33.1,29.851L31.709,29.851L31.709,26.506L29.224,26.506C28.285,28.484 26.273,29.851 23.939,29.851L20.848,29.851L20.848,26.506L13.84,26.506L11.891,29.851L10.264,29.851L17.084,18.153L23.939,18.153ZM23.939,28.455C26.4,28.455 28.396,26.461 28.396,24C28.396,21.54 26.4,19.546 23.939,19.546L22.24,19.546L22.24,21.493L23.939,21.493C25.325,21.493 26.447,22.617 26.447,24C26.447,25.386 25.325,26.506 23.939,26.506L22.24,26.506L22.24,28.455L23.939,28.455ZM20.848,19.546L18.899,19.546L18.899,23.166L15.789,23.166L14.653,25.115L20.848,25.115L20.848,19.546ZM35.05,19.546L33.1,19.546L33.1,21.493L35.05,21.493C35.513,21.493 35.885,21.87 35.885,22.33C35.885,22.794 35.513,23.166 35.05,23.166L33.1,23.166L33.1,25.115L35.05,25.115C36.588,25.115 37.834,23.867 37.834,22.33C37.834,20.792 36.588,19.546 35.05,19.546Z" style="fill:white;"/>
</svg>
