<?xml version="1.0" encoding="UTF-8" standalone="no"?>
<!DOCTYPE svg PUBLIC "-//W3C//DTD SVG 1.1//EN" "http://www.w3.org/Graphics/SVG/1.1/DTD/svg11.dtd">
<svg width="100%" height="100%" viewBox="0 0 48 48" version="1.1" xmlns="http://www.w3.org/2000/svg" xmlns:xlink="http://www.w3.org/1999/xlink" xml:space="preserve" xmlns:serif="http://www.serif.com/" style="fill-rule:evenodd;clip-rule:evenodd;stroke-linejoin:round;stroke-miterlimit:2;">
    <path d="M23.894,43L5,43L5,7C5,5.896 5.896,5 7,5L41,5C42.104,5 43,5.896 43,7L43,43L24.894,43L24.894,25.363C24.894,25.231 24.879,25.1 24.851,24.971C24.797,24.73 24.692,24.502 24.546,24.304C24.465,24.194 24.372,24.095 24.269,24.006L24.261,24L25.473,24L25.334,21.722C26.015,21.543 26.527,21.263 26.824,20.853L26.391,20.1C26.091,20.413 25.711,20.645 25.279,20.825L24.815,13.24L24.813,13.246C24.813,13.229 24.813,13.212 24.813,13.195C24.813,12.44 24.329,11.798 23.654,11.563L23.654,9.933L22.593,9.933L22.593,11.538C21.879,11.749 21.357,12.412 21.357,13.195C21.357,13.234 21.358,13.273 21.361,13.311L21.005,23.493L22.215,23.493C22.315,23.493 22.415,23.502 22.512,23.518L22.568,21.92L23.832,21.92L23.949,23.788C23.699,23.654 23.413,23.578 23.109,23.578L22.109,23.578L22.115,23.578C22.245,23.579 22.374,23.593 22.501,23.621C22.721,23.671 22.93,23.762 23.116,23.889C23.213,23.956 23.304,24.032 23.386,24.116C23.466,24.198 23.538,24.287 23.601,24.383C23.721,24.565 23.807,24.769 23.853,24.982C23.88,25.107 23.894,25.235 23.894,25.363L23.894,43ZM17.26,27.72L16.166,27.72L16.166,30.297L13.588,30.297L13.588,31.391L16.166,31.391L16.166,33.969L17.26,33.969L17.26,31.391L19.837,31.391L19.837,30.297L17.26,30.297L17.26,27.72ZM28.326,31.651L28.326,32.745L34.575,32.745L34.575,31.651L28.326,31.651ZM28.326,29.204L28.326,30.297L34.575,30.297L34.575,29.204L28.326,29.204ZM32.041,14.559L28.022,14.559L28.022,24L32.041,24L32.041,14.559ZM36.909,12.387C35.829,10.528 34.943,10.528 33.863,12.387L33.863,24L36.909,24L36.909,12.387ZM15.14,23.493L15.14,9.869L11.063,9.869L11.063,10.761L12.997,10.761L12.997,11.238L11.063,11.238L11.063,11.595L12.402,11.595L12.402,12.071L11.063,12.071L11.063,12.368L12.402,12.368L12.402,12.845L11.063,12.845L11.063,13.321L12.402,13.321L12.402,13.797L11.063,13.797L11.063,14.184L12.402,14.184L12.402,14.66L11.063,14.66L11.063,15.017L12.997,15.017L12.997,15.493L11.063,15.493L11.063,15.85L12.402,15.85L12.402,16.326L11.063,16.326L11.063,16.624L12.402,16.624L12.402,17.1L11.063,17.1L11.063,17.576L12.402,17.576L12.402,18.052L11.063,18.052L11.063,18.439L12.402,18.439L12.402,18.915L11.063,18.915L11.063,19.451L12.997,19.451L12.997,19.927L11.063,19.927L11.063,20.284L12.402,20.284L12.402,20.76L11.063,20.76L11.063,21.058L12.402,21.058L12.402,21.534L11.063,21.534L11.063,22.01L12.402,22.01L12.402,22.486L11.063,22.486L11.063,22.873L12.402,22.873L12.402,23.349L11.063,23.349L11.063,23.493L15.14,23.493ZM19.194,11.313C19.192,11.142 19.161,10.974 19.094,10.815C18.886,10.325 18.381,10.008 17.849,10.035C17.701,10.043 17.554,10.076 17.417,10.134C17.275,10.194 17.144,10.281 17.032,10.387C16.913,10.501 16.816,10.637 16.748,10.787C16.673,10.953 16.638,11.131 16.635,11.313L16.635,23.493L17.229,23.493L17.229,15.469C17.231,15.375 17.248,15.283 17.284,15.197C17.398,14.928 17.674,14.755 17.965,14.77C18.046,14.774 18.127,14.792 18.202,14.824C18.279,14.857 18.351,14.904 18.412,14.962C18.477,15.025 18.53,15.099 18.567,15.181C18.608,15.272 18.628,15.369 18.629,15.469L18.629,23.493L19.194,23.493L19.194,11.313ZM24.136,14.567L24.136,14.567C24.135,14.569 24.133,14.57 24.131,14.572C24.108,14.597 24.085,14.622 24.061,14.646C24.01,14.696 23.956,14.742 23.899,14.785C23.808,14.854 23.709,14.912 23.603,14.956C23.538,14.983 23.47,15.004 23.4,15.019L23.778,21.051L22.598,21.051L22.813,14.902C22.945,14.923 23.08,14.928 23.214,14.919C23.394,14.905 23.572,14.863 23.74,14.795C23.839,14.754 23.934,14.704 24.024,14.646C24.053,14.627 24.081,14.608 24.109,14.587C24.116,14.582 24.122,14.577 24.129,14.572L24.136,14.567ZM32.041,9.915L28.022,9.915L28.022,14.384L32.041,14.384L32.041,9.915ZM23.076,12.59C23.467,12.59 23.785,12.908 23.785,13.3C23.785,13.691 23.467,14.009 23.076,14.009C22.684,14.009 22.366,13.691 22.366,13.3C22.366,12.908 22.684,12.59 23.076,12.59Z" style="fill:white;"/>
</svg>
