<?xml version="1.0" encoding="UTF-8" standalone="no"?>
<!DOCTYPE svg PUBLIC "-//W3C//DTD SVG 1.1//EN" "http://www.w3.org/Graphics/SVG/1.1/DTD/svg11.dtd">
<svg width="100%" height="100%" viewBox="0 0 48 48" version="1.1" xmlns="http://www.w3.org/2000/svg" xmlns:xlink="http://www.w3.org/1999/xlink" xml:space="preserve" xmlns:serif="http://www.serif.com/" style="fill-rule:evenodd;clip-rule:evenodd;stroke-linejoin:round;stroke-miterlimit:2;">
    <path d="M43,40.704C43,41.313 42.758,41.897 42.327,42.327C41.897,42.758 41.313,43 40.704,43C33.928,43 14.072,43 7.296,43C6.687,43 6.103,42.758 5.673,42.327C5.242,41.897 5,41.313 5,40.704C5,38.783 5,36.356 5,36.356C6.575,35.037 8.627,34.613 10.953,34.702C10.4,34.215 10.063,33.583 9.792,32.908L10.495,32.908L10.39,32.521L8.983,32.521C9.611,30.572 8.346,27.393 8.406,25.547C8.594,19.804 10.961,18.2 13.064,16.092L13.275,15.458L14.823,15.775L14.963,14.684C14.75,14.386 14.105,14.756 14.091,14.438C13.879,9.54 14.669,9.027 16.511,7.578C16.936,7.244 18.096,7.318 18.833,7.543L19.013,7.905L20.663,8C22.601,9.656 23.217,10.755 23.371,11.659C23.387,12.372 23.145,12.998 22.597,13.524L22.457,12.75C21.407,13.437 21.396,14.431 22.035,15.494L21.05,15.634L20.909,16.373L19.959,17.71C19.276,17.978 18.344,17.56 17.285,16.795L17.285,17.464L21.437,23.409L20.768,24L21.05,24.324L21.507,24L22.211,24.57L26.573,22.037L26.889,21.263L26.116,21.122L30.056,16.69L32.659,16.69L29.809,20.102L29.141,22.53L27.241,23.55L24.99,25.661L27.663,30.727L28.121,30.551L28.719,32.099L27.875,32.626L28.156,32.943L28.578,32.767C29.804,36.401 32.581,37.742 35.966,38.185L35.192,39.275C38.439,40.176 40.879,39.126 43,37.305L43,40.704ZM16.341,34.962C17.598,34.318 19.306,33.28 20.563,32.035L22.871,30.572L24.503,32.598L24.644,33.33L25.572,34.484L26.192,34.062L27.937,36.313L27.965,38.058C24.442,36.752 20.117,35.254 16.341,34.962ZM17.467,24.999C17.062,26.066 16.83,27.168 17.101,27.785L19.578,26.434L19.353,25.9L18.902,26.153L17.931,25.13L17.467,24.999Z" style="fill:white;"/>
</svg>
