<?xml version="1.0" encoding="UTF-8" standalone="no"?>
<!DOCTYPE svg PUBLIC "-//W3C//DTD SVG 1.1//EN" "http://www.w3.org/Graphics/SVG/1.1/DTD/svg11.dtd">
<svg width="100%" height="100%" viewBox="0 0 48 48" version="1.1" xmlns="http://www.w3.org/2000/svg" xmlns:xlink="http://www.w3.org/1999/xlink" xml:space="preserve" xmlns:serif="http://www.serif.com/" style="fill-rule:evenodd;clip-rule:evenodd;stroke-linejoin:round;stroke-miterlimit:2;">
    <path d="M41,5C42.104,5 43,5.896 43,7L43,37.305C40.879,39.126 38.439,40.176 35.192,39.275L35.966,38.185C32.581,37.742 29.804,36.401 28.578,32.767L28.156,32.943L27.875,32.626L28.719,32.099L28.121,30.551L27.663,30.727L24.99,25.661L27.241,23.55L29.141,22.53L29.809,20.102L32.659,16.69L30.056,16.69L26.116,21.122L26.889,21.263L26.573,22.037L22.211,24.57L21.507,24L21.05,24.324L20.768,24L21.437,23.409L17.285,17.464L17.285,16.795C18.344,17.56 19.276,17.978 19.959,17.71L20.909,16.373L21.05,15.634L22.035,15.494C21.396,14.431 21.407,13.437 22.457,12.75L22.597,13.524C23.145,12.998 23.387,12.372 23.371,11.659C23.217,10.755 22.601,9.656 20.663,8L19.013,7.905L18.833,7.543C18.096,7.318 16.936,7.244 16.511,7.578C14.669,9.027 13.879,9.54 14.091,14.438C14.105,14.756 14.75,14.386 14.963,14.684L14.823,15.775L13.275,15.458L13.064,16.092C10.939,18.223 8.543,19.838 8.401,25.732C8.357,27.544 9.596,31.449 8.983,32.521L10.39,32.521L10.495,32.908L9.792,32.908C10.063,33.583 10.4,34.215 10.953,34.702C8.627,34.613 6.575,35.037 5,36.356L5,7C5.003,6.765 5.04,6.534 5.121,6.313C5.322,5.765 5.765,5.322 6.313,5.121C6.517,5.046 6.731,5.009 6.948,5.001L7,5L41,5ZM16.341,34.962C17.598,34.318 19.306,33.28 20.563,32.035L22.871,30.572L24.503,32.598L24.644,33.33L25.572,34.484L26.192,34.062L27.937,36.313L27.965,38.058C24.442,36.752 20.117,35.254 16.341,34.962ZM17.467,24.999C17.062,26.066 16.83,27.168 17.101,27.785L19.578,26.434L19.353,25.9L18.902,26.153L17.931,25.13L17.467,24.999Z" style="fill:white;"/>
</svg>
