<?xml version="1.0" encoding="UTF-8" standalone="no"?>
<!DOCTYPE svg PUBLIC "-//W3C//DTD SVG 1.1//EN" "http://www.w3.org/Graphics/SVG/1.1/DTD/svg11.dtd">
<svg width="100%" height="100%" viewBox="0 0 48 48" version="1.1" xmlns="http://www.w3.org/2000/svg" xmlns:xlink="http://www.w3.org/1999/xlink" xml:space="preserve" xmlns:serif="http://www.serif.com/" style="fill-rule:evenodd;clip-rule:evenodd;stroke-linejoin:round;stroke-miterlimit:2;">
    <g>
        <path d="M24,2C36.142,2 46,11.858 46,24C46,36.142 36.142,46 24,46C11.858,46 2,36.142 2,24C2,11.858 11.858,2 24,2ZM42.164,24.515C43.374,24.641 43.223,25.776 43.223,25.776C42.57,27.831 40.646,29.086 38.375,29.086C35.566,29.086 33.289,26.809 33.289,24C33.289,21.191 35.566,18.914 38.375,18.914C40.656,18.914 42.586,20.026 43.232,22.095C43.232,22.095 43.54,23.339 42.201,23.495C41.209,23.495 41.057,22.686 41.057,22.686C40.674,21.577 39.62,21.169 38.38,21.169C36.816,21.169 35.549,22.436 35.549,24C35.549,25.564 36.816,26.831 38.38,26.831C39.604,26.831 40.647,26.287 41.042,25.199C41.042,25.199 41.285,24.496 42.164,24.515ZM13.578,27.46C13.578,26.261 12.388,26.256 12.388,26.256L8.101,26.256C7.847,26.256 7.818,26.062 7.879,25.836C8.402,24.535 9.564,23.079 10.806,22.443C11.833,21.918 13.011,21.373 14.232,21.452C14.487,21.472 14.487,21.591 14.488,21.991L14.488,27.402C14.488,27.402 14.55,28.63 15.739,28.63C16.964,28.63 16.867,27.442 16.867,27.442L16.862,20.649C16.878,20.236 16.802,19.84 16.556,19.522C16.374,19.356 16.128,19.181 15.85,19.142C14.391,19.023 12.989,19.155 11.647,19.546C9.156,20.272 6.776,22.295 5.555,24.702C5.139,25.522 4.754,26.598 4.738,27.589C4.754,28.065 4.952,28.62 5.496,28.62L12.408,28.656C12.408,28.656 13.578,28.699 13.578,27.46ZM25.258,20.403C27.099,18.844 29.029,18.876 30.671,19.685C32.198,20.49 32.745,21.648 32.769,23.338L32.768,27.485C32.768,27.485 32.753,28.655 31.554,28.655C30.413,28.655 30.36,27.493 30.36,27.493L30.344,23.395C30.344,23.395 30.275,21.492 28.371,21.492C26.457,21.492 26.306,23.385 26.306,23.385L26.306,27.419C26.306,27.419 26.306,28.64 25.094,28.64C23.911,28.64 23.886,27.419 23.886,27.419L23.886,23.397C23.886,23.397 23.85,21.492 21.827,21.492C19.814,21.492 19.866,23.425 19.866,23.425L19.866,27.561C19.866,27.561 19.725,28.65 18.664,28.65C17.564,28.65 17.453,27.551 17.453,27.551L17.445,23.377C17.445,21.838 17.742,20.311 19.931,19.447C20.926,19.054 22.093,19.062 23.14,19.3C23.838,19.554 24.441,19.895 25.028,20.403L25.139,20.5L25.258,20.403Z" style="fill:white;"/>
    </g>
</svg>
