<?xml version="1.0" encoding="UTF-8" standalone="no"?>
<!DOCTYPE svg PUBLIC "-//W3C//DTD SVG 1.1//EN" "http://www.w3.org/Graphics/SVG/1.1/DTD/svg11.dtd">
<svg width="100%" height="100%" viewBox="0 0 48 48" version="1.1" xmlns="http://www.w3.org/2000/svg" xmlns:xlink="http://www.w3.org/1999/xlink" xml:space="preserve" xmlns:serif="http://www.serif.com/" style="fill-rule:evenodd;clip-rule:evenodd;stroke-linejoin:round;stroke-miterlimit:2;">
    <path d="M24,2C36.142,2 46,11.858 46,24C46,36.142 36.142,46 24,46C11.858,46 2,36.142 2,24C2,11.858 11.858,2 24,2ZM33.467,36.297L33.478,36.297C33.569,36.295 33.659,36.277 33.744,36.242C33.807,36.216 33.866,36.181 33.919,36.138C34.085,36.004 34.185,35.8 34.188,35.588C34.19,35.496 34.173,35.406 34.142,35.321C34.142,35.321 31.515,28.343 30.859,26.6C30.777,26.382 30.884,26.139 31.099,26.052C31.863,25.744 33.598,25.043 34.859,24.534C35.248,24.377 35.558,24.072 35.722,23.687C35.886,23.301 35.889,22.866 35.733,22.478C35.672,22.328 35.611,22.176 35.55,22.026C35.209,21.181 34.248,20.773 33.404,21.114C33.404,21.114 30.831,22.153 29.802,22.569C29.691,22.613 29.568,22.611 29.459,22.564C29.35,22.516 29.265,22.426 29.223,22.315C28.544,20.52 25.931,13.61 25.931,13.61C25.497,12.462 24.398,11.703 23.17,11.703C21.943,11.703 20.844,12.462 20.41,13.61C17.588,21.071 13.447,32.02 12.199,35.321C12.115,35.542 12.146,35.791 12.28,35.986C12.415,36.181 12.637,36.297 12.874,36.297C12.874,36.297 14.73,36.297 15.727,36.296C16.118,36.296 16.49,36.129 16.75,35.837C19.164,33.152 22.315,30.499 26.5,28.275C26.5,28.275 28.351,33.326 29.115,35.412C29.31,35.944 29.816,36.297 30.382,36.297L33.467,36.297ZM23.388,21.227C23.322,21.086 23.178,20.998 23.022,21.001C22.866,21.004 22.727,21.099 22.666,21.243C21.879,23.105 20.018,27.514 20.018,27.514C20.018,27.514 23.501,25.304 24.583,24.618C24.764,24.503 24.831,24.272 24.739,24.078C24.442,23.452 23.801,22.099 23.388,21.227Z" style="fill:white;"/>
</svg>
