<?xml version="1.0" encoding="UTF-8" standalone="no"?>
<!DOCTYPE svg PUBLIC "-//W3C//DTD SVG 1.1//EN" "http://www.w3.org/Graphics/SVG/1.1/DTD/svg11.dtd">
<svg width="100%" height="100%" viewBox="0 0 48 48" version="1.1" xmlns="http://www.w3.org/2000/svg" xmlns:xlink="http://www.w3.org/1999/xlink" xml:space="preserve" xmlns:serif="http://www.serif.com/" style="fill-rule:evenodd;clip-rule:evenodd;stroke-linejoin:round;stroke-miterlimit:2;">
    <path d="M24,2C36.142,2 46,11.858 46,24C46,36.142 36.142,46 24,46C11.858,46 2,36.142 2,24C2,11.858 11.858,2 24,2ZM36.614,25.769C35.968,32.066 32.453,37.371 27.562,39.982L29.412,43.033C35.755,39.63 40.178,32.406 40.326,24C40.178,15.594 35.755,8.371 29.412,4.967L27.562,8.018C32.453,10.629 35.968,15.934 36.614,22.231L36.665,24L36.614,25.769ZM26.244,37.662L26.677,37.424C28.895,36.204 30.781,34.307 32.13,31.938C33.508,29.519 34.263,26.708 34.313,23.809L34.313,23.8L34.313,23.792C34.263,20.892 33.508,18.081 32.13,15.662C30.781,13.294 28.895,11.397 26.677,10.177L26.244,9.938L24.484,12.915L24.936,13.162C26.499,14.018 27.865,15.329 28.886,16.955C29.928,18.614 30.587,20.567 30.794,22.606L30.827,23.8L30.794,24.994C30.587,27.033 29.928,28.986 28.886,30.645C27.865,32.271 26.499,33.583 24.936,34.438L24.484,34.685L26.244,37.662ZM24.934,22.484L13.55,22.484C13.03,21.5 11.987,20.827 10.786,20.827C9.07,20.827 7.674,22.204 7.674,23.897C7.674,25.589 9.07,26.967 10.786,26.967C12.009,26.967 13.069,26.268 13.578,25.254L24.898,25.254C24.517,26.776 23.592,28.067 22.36,28.741L21.406,29.263L23.145,32.204L24.06,31.701C25.364,30.984 26.469,29.874 27.257,28.492C28.052,27.097 28.487,25.478 28.516,23.811L28.516,23.794L28.516,23.776C28.487,22.109 28.052,20.49 27.257,19.095C26.469,17.713 25.364,16.603 24.06,15.886L23.145,15.383L21.406,18.324L22.36,18.846C23.633,19.543 24.577,20.897 24.934,22.484Z" style="fill:white;"/>
</svg>
