<?xml version="1.0" encoding="UTF-8" standalone="no"?>
<!DOCTYPE svg PUBLIC "-//W3C//DTD SVG 1.1//EN" "http://www.w3.org/Graphics/SVG/1.1/DTD/svg11.dtd">
<svg width="100%" height="100%" viewBox="0 0 48 48" version="1.1" xmlns="http://www.w3.org/2000/svg" xmlns:xlink="http://www.w3.org/1999/xlink" xml:space="preserve" xmlns:serif="http://www.serif.com/" style="fill-rule:evenodd;clip-rule:evenodd;stroke-linejoin:round;stroke-miterlimit:2;">
    <path d="M41,43L7,43C5.896,43 5,42.104 5,41L5,7C5,5.896 5.896,5 7,5L41,5C42.104,5 43,5.896 43,7L43,41C43,42.104 42.104,43 41,43ZM14.902,34.959C14.859,35.043 14.829,35.132 14.816,35.226L14.813,35.248L14.812,35.267L14.811,35.282C14.79,35.614 14.986,35.931 15.291,36.062L15.307,36.069L15.322,36.074L15.342,36.082L15.358,36.087L15.367,36.09L15.392,36.097L15.397,36.099L15.422,36.105L15.453,36.111L15.479,36.116L15.489,36.117L15.506,36.12L15.523,36.122L15.54,36.123L15.556,36.124L15.573,36.125L15.589,36.126L15.611,36.126C15.712,36.124 15.812,36.103 15.906,36.065L24,32.719L31.996,36.059C32.09,36.097 32.189,36.119 32.291,36.12L32.313,36.12L32.334,36.12L32.351,36.119L32.367,36.118L32.383,36.116L32.399,36.114L32.415,36.112L32.423,36.111L32.448,36.107L32.474,36.101L32.48,36.1L32.504,36.094L32.51,36.093L32.535,36.086L32.549,36.081L32.564,36.076L32.58,36.07L32.597,36.064L32.611,36.058C32.917,35.928 33.113,35.612 33.094,35.28L33.093,35.263L33.092,35.246L33.089,35.224C33.076,35.124 33.043,35.028 32.994,34.939L24.002,18.893C24.002,18.893 17.576,30.238 14.912,34.941L14.902,34.959ZM32.968,32.845L34.461,32.845C34.986,32.845 35.471,32.566 35.735,32.112C35.998,31.659 36,31.099 35.74,30.643C33.257,26.287 27.745,16.62 25.259,12.26C25.001,11.807 24.519,11.527 23.998,11.526C23.476,11.525 22.994,11.804 22.734,12.256C20.253,16.574 14.773,26.108 12.238,30.521C11.962,31.001 11.963,31.592 12.24,32.071C12.517,32.55 13.029,32.845 13.583,32.845L14.95,32.845L23.132,18.4C23.206,18.275 23.3,18.166 23.418,18.082C23.774,17.825 24.271,17.834 24.617,18.104C24.723,18.186 24.807,18.288 24.875,18.404L32.968,32.845Z" style="fill:white;"/>
</svg>
