<?xml version="1.0" encoding="UTF-8" standalone="no"?>
<!DOCTYPE svg PUBLIC "-//W3C//DTD SVG 1.1//EN" "http://www.w3.org/Graphics/SVG/1.1/DTD/svg11.dtd">
<svg width="100%" height="100%" viewBox="0 0 48 48" version="1.1" xmlns="http://www.w3.org/2000/svg" xmlns:xlink="http://www.w3.org/1999/xlink" xml:space="preserve" xmlns:serif="http://www.serif.com/" style="fill-rule:evenodd;clip-rule:evenodd;stroke-linejoin:round;stroke-miterlimit:2;">
    <path d="M41,5C42.104,5 43,5.896 43,7L43,41C43,42.104 42.104,43 41,43L7,43C5.896,43 5,42.104 5,41L5,7C5,5.896 5.896,5 7,5L41,5ZM29.823,30.97L30.858,32.631C30.883,32.672 30.928,32.697 30.976,32.697L33.4,32.697C33.635,32.697 33.853,32.574 33.974,32.372C34.095,32.171 34.102,31.92 33.992,31.713C31.846,27.676 26.511,17.64 24.419,13.705C24.336,13.549 24.175,13.452 23.998,13.452C23.822,13.452 23.66,13.549 23.577,13.704C21.485,17.619 16.163,27.58 14.014,31.604C13.902,31.812 13.908,32.064 14.03,32.267C14.151,32.469 14.37,32.593 14.607,32.593L17.28,32.593L22.617,22.268C22.882,21.754 23.414,21.434 23.992,21.44C24.57,21.446 25.096,21.777 25.351,22.295C26.263,24.15 27.538,26.744 27.538,26.744C27.613,26.898 27.605,27.079 27.516,27.225C27.427,27.372 27.269,27.462 27.098,27.465L25.015,27.5C24.831,27.875 24.446,28.133 24,28.133C23.377,28.133 22.87,27.627 22.87,27.004C22.87,26.38 23.377,25.874 24,25.874C24.442,25.874 24.826,26.129 25.011,26.5L26.293,26.478L24.454,22.737C24.365,22.557 24.183,22.442 23.982,22.44C23.782,22.438 23.597,22.549 23.505,22.727C21.887,25.858 18.691,32.043 18.118,33.151C17.977,33.423 17.697,33.593 17.391,33.593C16.925,33.593 15.696,33.593 14.607,33.593C14.019,33.593 13.474,33.285 13.172,32.781C12.87,32.277 12.855,31.651 13.132,31.133C15.281,27.109 20.603,17.148 22.695,13.233C22.952,12.752 23.454,12.451 23.999,12.452C24.545,12.452 25.046,12.754 25.302,13.236C27.394,17.17 32.729,27.207 34.875,31.243C35.15,31.761 35.133,32.385 34.831,32.887C34.529,33.39 33.986,33.697 33.4,33.697C32.489,33.697 31.492,33.697 30.976,33.697C30.582,33.697 30.217,33.494 30.009,33.16L29.005,31.548C28.948,31.556 28.889,31.561 28.83,31.561C28.207,31.561 27.7,31.055 27.7,30.431C27.7,29.808 28.207,29.302 28.83,29.302C29.454,29.302 29.96,29.808 29.96,30.431C29.96,30.626 29.91,30.81 29.823,30.97Z" style="fill:white;"/>
</svg>
