<?xml version="1.0" encoding="UTF-8" standalone="no"?>
<!DOCTYPE svg PUBLIC "-//W3C//DTD SVG 1.1//EN" "http://www.w3.org/Graphics/SVG/1.1/DTD/svg11.dtd">
<svg width="100%" height="100%" viewBox="0 0 48 48" version="1.1" xmlns="http://www.w3.org/2000/svg" xmlns:xlink="http://www.w3.org/1999/xlink" xml:space="preserve" xmlns:serif="http://www.serif.com/" style="fill-rule:evenodd;clip-rule:evenodd;stroke-linejoin:round;stroke-miterlimit:2;">
    <path d="M19.121,13.993C19.118,13.502 19.135,13.01 19.186,12.521C19.228,12.124 19.291,11.729 19.39,11.342C19.448,11.117 19.517,10.894 19.603,10.678C19.677,10.492 19.763,10.311 19.864,10.139C19.999,9.909 20.161,9.695 20.355,9.513C20.485,9.391 20.629,9.285 20.784,9.198C20.888,9.14 20.997,9.091 21.109,9.051C21.19,9.023 21.271,9 21.354,8.981C21.415,8.968 21.476,8.956 21.537,8.948C21.932,8.893 22.335,8.938 22.718,9.039C22.778,9.055 22.837,9.072 22.896,9.091C22.977,9.116 23.057,9.143 23.136,9.173C23.246,9.214 23.355,9.26 23.463,9.309C23.604,9.373 23.742,9.443 23.877,9.518C24.175,9.682 24.46,9.869 24.733,10.072C25.05,10.308 25.35,10.565 25.634,10.839C25.985,11.176 26.311,11.539 26.611,11.922C26.894,12.283 27.153,12.663 27.382,13.061C27.612,13.461 27.812,13.881 27.965,14.317C28.092,14.678 28.186,15.052 28.23,15.433L28.23,15.437C30.276,15.637 32.323,16.185 34.027,16.894C35.136,15.186 36.178,13.203 37.164,11.084C36.495,13.154 35.761,15.238 34.774,17.226C38.311,18.901 39.897,21.235 35.762,22.185L35.767,22.187C36.177,22.427 36.577,22.684 36.96,22.966C37.239,23.172 37.509,23.391 37.764,23.626C37.886,23.739 38.004,23.855 38.118,23.976C38.206,24.07 38.292,24.166 38.374,24.265C38.438,24.342 38.5,24.421 38.559,24.501C38.604,24.561 38.647,24.623 38.689,24.686C38.925,25.038 39.114,25.428 39.204,25.844C39.217,25.902 39.228,25.959 39.236,26.017C39.247,26.092 39.255,26.167 39.259,26.243C39.265,26.349 39.264,26.456 39.255,26.562C39.242,26.716 39.214,26.868 39.17,27.016C39.109,27.222 39.02,27.419 38.908,27.602C38.748,27.865 38.543,28.098 38.315,28.303C38.159,28.444 37.991,28.571 37.817,28.686C37.604,28.827 37.381,28.951 37.152,29.061C36.791,29.233 36.415,29.372 36.032,29.484C35.561,29.622 35.078,29.721 34.592,29.79C33.991,29.874 33.383,29.912 32.776,29.913C32.133,29.914 31.49,29.874 30.851,29.799C30.635,29.774 30.42,29.744 30.206,29.711L30.158,29.734C29.562,30.489 28.912,31.201 28.221,31.87C27.557,32.511 26.855,33.113 26.118,33.667L26.094,33.685C27.25,35.764 28.636,37.696 29.939,39.548C28.688,38.68 27.19,37.136 25.354,34.213C21.861,36.58 18.853,36.85 20.677,32.531C14.233,36.208 11.821,32.404 16.925,24.261C16.097,22.352 15.625,20.247 15.478,18.369C13.368,18.277 11.144,18.395 8.737,18.846C9.415,18.145 11.865,17.793 15.438,17.663C15.299,13.787 16.627,11.193 19.121,14.009L19.121,13.993ZM23.363,30.729C22.689,31.243 22.044,31.691 21.431,32.078C21.043,34.028 22.609,34.101 24.638,33.031C24.229,32.332 23.804,31.567 23.363,30.729ZM33.205,18.091C30.059,16.515 24.904,15.488 21.434,17.709L21.434,17.717C21.448,18.321 21.486,18.924 21.546,19.525C21.596,20.033 21.66,20.539 21.738,21.043C21.829,21.637 21.939,22.229 22.067,22.817C22.195,23.408 22.34,23.995 22.504,24.577C22.69,25.24 22.901,25.896 23.137,26.544C23.216,26.76 23.298,26.975 23.383,27.19C23.41,27.258 23.437,27.326 23.465,27.394C23.475,27.419 23.486,27.444 23.496,27.47C23.5,27.478 23.505,27.486 23.507,27.495C23.507,27.495 23.499,27.508 23.499,27.508C23.488,27.525 23.477,27.542 23.466,27.558C23.425,27.619 23.381,27.678 23.333,27.734C23.233,27.849 23.116,27.951 22.983,28.025C22.908,28.066 22.829,28.099 22.747,28.123C22.665,28.146 22.581,28.159 22.497,28.165C22.401,28.17 22.305,28.165 22.21,28.152C22.187,28.149 22.165,28.145 22.143,28.141C22.138,28.141 22.134,28.14 22.129,28.139C22.127,28.139 22.124,28.14 22.123,28.138C22.112,28.11 22.105,28.082 22.096,28.054C22.078,27.998 22.06,27.943 22.042,27.887C21.98,27.695 21.919,27.503 21.858,27.311C21.683,26.757 21.512,26.202 21.346,25.645C21.113,24.863 20.89,24.077 20.679,23.288C20.323,21.956 20.001,20.613 19.735,19.259L19.734,19.254C19.554,19.484 19.388,19.724 19.236,19.973C19.003,20.357 18.803,20.761 18.635,21.177C18.542,21.407 18.459,21.64 18.384,21.876C18.36,21.952 18.337,22.028 18.314,22.104C18.306,22.133 18.297,22.163 18.289,22.193C18.287,22.199 18.285,22.205 18.284,22.211C18.282,22.217 18.283,22.233 18.279,22.229C18.279,22.229 18.281,22.186 18.281,22.186C18.284,22.131 18.288,22.075 18.292,22.019C18.309,21.803 18.332,21.587 18.363,21.373C18.44,20.835 18.566,20.303 18.751,19.792C18.836,19.558 18.934,19.328 19.044,19.105C19.103,18.988 19.165,18.872 19.23,18.758L19.238,18.745C18.48,18.63 17.711,18.534 16.928,18.465C17.154,22.021 18.837,27.063 22.192,29.082C24.634,27.53 27.481,25.074 29.939,22.338L31.125,23.186C28.696,26.007 26.438,28.225 24.414,29.895C25.555,30.071 26.832,29.934 28.251,29.381C26.879,29.967 25.627,30.23 24.491,30.233C24.779,31.021 25.115,31.787 25.487,32.534C28.471,30.618 31.968,26.648 31.852,22.656C29.281,21.203 25.745,19.873 22.187,19.239L22.123,17.994C25.848,18.625 28.874,19.385 31.289,20.212L31.285,20.203C31.165,19.94 31.028,19.685 30.876,19.439C30.643,19.062 30.376,18.708 30.083,18.376C29.921,18.193 29.751,18.016 29.575,17.846C29.519,17.793 29.463,17.74 29.407,17.688C29.385,17.668 29.363,17.648 29.34,17.627C29.336,17.623 29.332,17.619 29.327,17.615C29.323,17.611 29.308,17.604 29.314,17.603C29.314,17.603 29.352,17.625 29.352,17.625C29.396,17.651 29.44,17.677 29.484,17.704C29.659,17.809 29.832,17.919 30.001,18.035C30.528,18.395 31.021,18.808 31.448,19.283C31.586,19.435 31.716,19.593 31.838,19.758L31.844,19.767C32.309,19.26 32.762,18.699 33.205,18.091ZM17.448,25.349C14.982,31.36 17.535,31.793 21.442,29.537C19.732,28.694 18.411,27.159 17.448,25.349ZM32.944,23.327C32.938,23.505 32.925,23.684 32.906,23.861C32.839,24.459 32.697,25.047 32.503,25.616C32.364,26.026 32.197,26.425 32.011,26.815C31.761,27.336 31.476,27.839 31.165,28.325L31.157,28.337C37.377,28.218 36.623,25.72 32.944,23.317L32.944,23.327ZM34.061,18.563C33.64,19.299 33.175,20.018 32.658,20.714L32.669,20.718C33.039,20.864 33.407,21.016 33.771,21.177C34.083,21.315 34.391,21.46 34.696,21.612L34.71,21.618C36.797,21.176 36.079,19.79 34.061,18.563ZM19.167,15.181C17.693,13.804 16.91,15.213 16.901,17.623C17.706,17.608 18.555,17.601 19.444,17.603L19.441,17.586C19.32,16.79 19.223,15.991 19.168,15.188L19.167,15.181ZM27.202,15.366L27.165,15.354C23.468,10.029 21.62,12.145 21.443,16.551C23.045,15.611 25.092,15.285 27.202,15.366Z" style="fill:white;"/>
</svg>
