<?xml version="1.0" encoding="UTF-8" standalone="no"?>
<!DOCTYPE svg PUBLIC "-//W3C//DTD SVG 1.1//EN" "http://www.w3.org/Graphics/SVG/1.1/DTD/svg11.dtd">
<svg width="100%" height="100%" viewBox="0 0 48 48" version="1.1" xmlns="http://www.w3.org/2000/svg" xmlns:xlink="http://www.w3.org/1999/xlink" xml:space="preserve" xmlns:serif="http://www.serif.com/" style="fill-rule:evenodd;clip-rule:evenodd;stroke-linejoin:round;stroke-miterlimit:2;">
    <path d="M41,5C42.104,5 43,5.896 43,7L43,41C43,42.104 42.104,43 41,43L7,43C5.896,43 5,42.104 5,41L5,7C5,5.896 5.896,5 7,5L41,5ZM28.23,15.437C27.713,10.806 19.043,4.189 19.121,14.009C16.627,11.192 15.299,13.787 15.438,17.663C11.865,17.793 9.415,18.145 8.737,18.846C11.144,18.395 13.368,18.277 15.478,18.369C15.626,20.247 16.097,22.351 16.925,24.261L16.921,24.267C16.555,24.852 16.206,25.447 15.882,26.055C15.634,26.523 15.399,26.998 15.185,27.482C15.016,27.865 14.859,28.254 14.72,28.649C14.616,28.943 14.523,29.24 14.442,29.542C14.38,29.774 14.326,30.009 14.282,30.246C14.249,30.427 14.222,30.608 14.203,30.79C14.188,30.925 14.178,31.061 14.173,31.197C14.17,31.296 14.169,31.395 14.171,31.493C14.173,31.569 14.177,31.645 14.183,31.721C14.187,31.779 14.193,31.838 14.2,31.896C14.249,32.291 14.363,32.685 14.582,33.022C14.62,33.079 14.661,33.135 14.704,33.189C14.764,33.262 14.83,33.332 14.901,33.395C15.005,33.49 15.121,33.572 15.244,33.641C15.431,33.745 15.635,33.819 15.844,33.866C16.166,33.938 16.5,33.95 16.828,33.926C17.067,33.908 17.305,33.872 17.539,33.823C17.817,33.764 18.09,33.687 18.359,33.598C18.706,33.483 19.047,33.346 19.38,33.196C19.817,32.999 20.243,32.777 20.66,32.541L20.677,32.531C18.852,36.851 21.86,36.581 25.354,34.213C27.19,37.136 28.688,38.68 29.939,39.548C28.636,37.696 27.25,35.764 26.094,33.685C27.521,32.617 28.978,31.236 30.179,29.707L30.206,29.711C30.42,29.744 30.635,29.774 30.851,29.799C31.49,29.874 32.133,29.914 32.776,29.913C33.383,29.912 33.991,29.874 34.592,29.79C35.078,29.721 35.561,29.622 36.032,29.484C36.415,29.372 36.791,29.233 37.152,29.061C37.381,28.951 37.604,28.827 37.817,28.686C37.991,28.571 38.159,28.444 38.315,28.303C38.543,28.098 38.748,27.865 38.908,27.602C39.02,27.419 39.109,27.222 39.17,27.016C39.214,26.868 39.242,26.716 39.255,26.562C39.264,26.456 39.265,26.349 39.259,26.243C39.255,26.167 39.247,26.092 39.236,26.017C39.228,25.959 39.217,25.902 39.204,25.844C39.114,25.428 38.925,25.038 38.689,24.686C38.647,24.623 38.604,24.561 38.559,24.501C38.5,24.421 38.438,24.342 38.374,24.265C38.292,24.166 38.206,24.07 38.118,23.976C38.004,23.855 37.886,23.739 37.764,23.626C37.509,23.391 37.239,23.172 36.96,22.966C36.577,22.684 36.177,22.427 35.767,22.187L35.762,22.185C39.898,21.235 38.311,18.901 34.774,17.226C35.761,15.238 36.495,13.154 37.164,11.084C36.178,13.203 35.136,15.186 34.027,16.894C32.323,16.185 30.277,15.637 28.23,15.437ZM23.363,30.729C23.804,31.568 24.229,32.333 24.638,33.031C22.61,34.1 21.043,34.028 21.431,32.078L21.444,32.07C21.741,31.882 22.035,31.687 22.324,31.486C22.668,31.247 23.006,31 23.339,30.747L23.363,30.729ZM21.434,17.709C24.905,15.489 30.059,16.516 33.205,18.091C32.762,18.698 32.309,19.26 31.844,19.767L31.838,19.758C31.716,19.593 31.586,19.435 31.448,19.283C31.021,18.808 30.528,18.395 30.001,18.035C29.832,17.919 29.659,17.809 29.484,17.704C29.44,17.677 29.396,17.651 29.352,17.625C29.352,17.625 29.314,17.603 29.314,17.603C29.308,17.604 29.323,17.611 29.327,17.615C29.332,17.619 29.336,17.623 29.34,17.627C29.363,17.648 29.385,17.668 29.407,17.688C29.463,17.74 29.519,17.793 29.575,17.846C29.751,18.016 29.921,18.193 30.083,18.376C30.376,18.708 30.643,19.062 30.876,19.439C31.028,19.685 31.165,19.94 31.285,20.203L31.289,20.212C28.874,19.385 25.848,18.625 22.123,17.994L22.187,19.239C25.745,19.873 29.281,21.203 31.852,22.656C31.968,26.647 28.472,30.617 25.487,32.534C25.115,31.787 24.779,31.021 24.491,30.233C25.627,30.23 26.879,29.967 28.251,29.381C26.832,29.934 25.555,30.071 24.414,29.895C26.438,28.225 28.696,26.007 31.125,23.186L29.939,22.338C27.481,25.074 24.634,27.53 22.192,29.082C18.837,27.064 17.154,22.021 16.928,18.465C17.711,18.534 18.48,18.63 19.238,18.745L19.23,18.758C19.165,18.872 19.103,18.988 19.044,19.105C18.934,19.328 18.836,19.558 18.751,19.792C18.566,20.303 18.44,20.835 18.363,21.373C18.332,21.587 18.309,21.803 18.292,22.019C18.288,22.075 18.284,22.131 18.281,22.186C18.281,22.186 18.279,22.229 18.279,22.229C18.283,22.233 18.282,22.217 18.284,22.211C18.285,22.205 18.287,22.199 18.289,22.193C18.297,22.163 18.306,22.133 18.314,22.104C18.337,22.028 18.36,21.952 18.384,21.876C18.459,21.64 18.542,21.407 18.635,21.177C18.803,20.761 19.003,20.357 19.236,19.973C19.388,19.724 19.554,19.484 19.734,19.254L19.735,19.259C20.001,20.613 20.323,21.956 20.679,23.288C20.89,24.077 21.113,24.863 21.346,25.645C21.512,26.202 21.683,26.757 21.858,27.311C21.919,27.503 21.98,27.695 22.042,27.887C22.06,27.943 22.078,27.998 22.096,28.054C22.105,28.082 22.112,28.11 22.123,28.138C22.124,28.14 22.127,28.139 22.129,28.139C22.134,28.14 22.138,28.141 22.143,28.141C22.165,28.145 22.187,28.149 22.21,28.152C22.305,28.165 22.401,28.17 22.497,28.165C22.581,28.159 22.665,28.146 22.747,28.123C22.829,28.099 22.908,28.066 22.983,28.025C23.116,27.951 23.233,27.849 23.333,27.734C23.381,27.678 23.425,27.619 23.466,27.558C23.477,27.542 23.488,27.525 23.499,27.508C23.499,27.508 23.507,27.495 23.507,27.495C23.505,27.486 23.5,27.478 23.496,27.47C23.486,27.444 23.475,27.419 23.465,27.394C23.437,27.326 23.41,27.258 23.383,27.19C23.298,26.975 23.216,26.76 23.137,26.544C22.901,25.896 22.69,25.24 22.504,24.577C22.34,23.995 22.195,23.408 22.067,22.817C21.939,22.229 21.829,21.637 21.738,21.043C21.66,20.539 21.596,20.033 21.546,19.525C21.486,18.924 21.448,18.321 21.434,17.717L21.434,17.709ZM17.448,25.349C18.411,27.159 19.732,28.694 21.442,29.537C17.535,31.793 14.982,31.36 17.448,25.349ZM32.944,23.317C36.623,25.72 37.377,28.217 31.157,28.337L31.165,28.325C31.476,27.839 31.761,27.336 32.011,26.815C32.197,26.425 32.364,26.026 32.503,25.616C32.697,25.047 32.839,24.459 32.906,23.861C32.925,23.684 32.938,23.505 32.944,23.327L32.944,23.317ZM34.061,18.563C36.079,19.791 36.796,21.176 34.71,21.618C34.095,21.312 33.413,21.009 32.658,20.714C33.175,20.018 33.639,19.299 34.061,18.563ZM16.901,17.623C16.909,15.213 17.693,13.803 19.167,15.181C19.217,15.912 19.308,16.717 19.444,17.603C18.555,17.601 17.706,17.608 16.901,17.623ZM21.443,16.551C21.62,12.145 23.468,10.029 27.165,15.354L27.202,15.366C25.092,15.285 23.045,15.611 21.443,16.551Z" style="fill:white;"/>
</svg>
