<?xml version="1.0" encoding="UTF-8" standalone="no"?>
<!DOCTYPE svg PUBLIC "-//W3C//DTD SVG 1.1//EN" "http://www.w3.org/Graphics/SVG/1.1/DTD/svg11.dtd">
<svg width="100%" height="100%" viewBox="0 0 48 48" version="1.1" xmlns="http://www.w3.org/2000/svg" xmlns:xlink="http://www.w3.org/1999/xlink" xml:space="preserve" xmlns:serif="http://www.serif.com/" style="fill-rule:evenodd;clip-rule:evenodd;stroke-linejoin:round;stroke-miterlimit:2;">
    <path d="M41,5C42.104,5 43,5.896 43,7L43,41C43,42.104 42.104,43 41,43L7,43C5.896,43 5,42.104 5,41L5,7C5,5.896 5.896,5 7,5L41,5ZM32.203,29.7L32.203,18.312L17.541,18.312L14.211,21.517L14.211,26.37L17.541,29.7L32.203,29.7ZM16.809,23.268C17.213,23.268 17.541,23.596 17.541,24C17.541,24.404 17.213,24.732 16.809,24.732C16.405,24.732 16.077,24.404 16.077,24C16.077,23.596 16.405,23.268 16.809,23.268Z" style="fill:white;"/>
</svg>
