<?xml version="1.0" encoding="UTF-8" standalone="no"?>
<!DOCTYPE svg PUBLIC "-//W3C//DTD SVG 1.1//EN" "http://www.w3.org/Graphics/SVG/1.1/DTD/svg11.dtd">
<svg width="100%" height="100%" viewBox="0 0 48 48" version="1.1" xmlns="http://www.w3.org/2000/svg" xmlns:xlink="http://www.w3.org/1999/xlink" xml:space="preserve" xmlns:serif="http://www.serif.com/" style="fill-rule:evenodd;clip-rule:evenodd;stroke-linejoin:round;stroke-miterlimit:2;">
    <path d="M41,5C42.104,5 43,5.896 43,7L43,41C43,42.104 42.104,43 41,43L7,43C5.896,43 5,42.104 5,41L5,7C5,5.896 5.896,5 7,5L41,5ZM36.095,24.324C36.616,24.324 37.081,23.996 37.256,23.505C37.43,23.013 37.277,22.465 36.872,22.136L24.572,12.132C24.12,11.764 23.472,11.763 23.019,12.13L11.129,21.774C10.601,22.203 10.52,22.979 10.948,23.507C11.376,24.035 12.153,24.116 12.681,23.688C12.681,23.688 20.114,17.659 22.822,15.463C23.388,15.003 24.199,15.004 24.765,15.464C27.06,17.331 32.628,21.86 32.628,21.86L32.26,21.86L32.196,21.862C31.538,21.912 31.045,22.433 31.028,23.092L31.028,33.681L17.197,33.681L17.197,26.34C17.197,25.661 16.645,25.109 15.966,25.109C15.286,25.109 14.734,25.661 14.734,26.34L14.734,34.913C14.734,35.593 15.285,36.145 15.966,36.145L32.26,36.145L32.292,36.144C32.792,36.125 33.243,35.81 33.417,35.336C33.467,35.2 33.49,35.058 33.492,34.913L33.492,24.324L36.095,24.324Z" style="fill:white;"/>
</svg>
