<?xml version="1.0" encoding="UTF-8" standalone="no"?>
<!DOCTYPE svg PUBLIC "-//W3C//DTD SVG 1.1//EN" "http://www.w3.org/Graphics/SVG/1.1/DTD/svg11.dtd">
<svg width="100%" height="100%" viewBox="0 0 48 48" version="1.1" xmlns="http://www.w3.org/2000/svg" xmlns:xlink="http://www.w3.org/1999/xlink" xml:space="preserve" xmlns:serif="http://www.serif.com/" style="fill-rule:evenodd;clip-rule:evenodd;stroke-linejoin:round;stroke-miterlimit:2;">
    <path d="M32.458,29.135L24,37.593L15.556,29.149L18.742,25.964L24,31.222L29.273,25.949L32.458,29.135ZM20.691,23.985L20.706,24L20.691,24.015L24,27.324L27.324,24L24,20.676L20.691,23.985ZM16.792,23.985C16.779,23.998 16.78,24.002 16.792,24.015L13.607,27.2L10.407,24L13.607,20.8L16.792,23.985ZM37.593,24L34.408,27.185L31.222,24L34.408,20.815L37.593,24ZM32.458,18.865L29.273,22.051L24,16.778L18.742,22.036L15.556,18.851L24,10.407L32.458,18.865Z" style="fill:white;"/>
    <path d="M32.458,29.135L24,37.593L15.556,29.149L18.742,25.964L24,31.222L29.273,25.949L32.458,29.135ZM25.414,32.637C24.609,33.402 23.391,33.402 22.586,32.637L18.742,28.792L18.385,29.149L24,34.765L29.63,29.135L29.273,28.778L25.414,32.637ZM20.691,23.985L20.706,24L20.691,24.015L24,27.324L27.324,24L24,20.676L20.691,23.985ZM16.792,23.985C16.779,23.998 16.78,24.002 16.792,24.015L13.607,27.2L10.407,24L13.607,20.8L16.792,23.985ZM37.593,24L34.408,27.185L31.222,24L34.408,20.815L37.593,24ZM23.505,24L24,24.495L24.495,24L24,23.505L23.505,24ZM13.235,24L13.607,24.372L13.979,24L13.607,23.628L13.235,24ZM34.051,24L34.408,24.357L34.765,24L34.408,23.643L34.051,24ZM32.458,18.865L29.273,22.051L24,16.778L18.742,22.036L15.556,18.851L24,10.407L32.458,18.865ZM29.273,19.222L29.63,18.865L24,13.235L18.385,18.851L18.742,19.208L22.586,15.363C23.391,14.598 24.609,14.598 25.414,15.363L29.273,19.222Z" style="fill:white;"/>
</svg>
