<?xml version="1.0" encoding="UTF-8" standalone="no"?>
<!DOCTYPE svg PUBLIC "-//W3C//DTD SVG 1.1//EN" "http://www.w3.org/Graphics/SVG/1.1/DTD/svg11.dtd">
<svg width="100%" height="100%" viewBox="0 0 48 48" version="1.1" xmlns="http://www.w3.org/2000/svg" xmlns:xlink="http://www.w3.org/1999/xlink" xml:space="preserve" xmlns:serif="http://www.serif.com/" style="fill-rule:evenodd;clip-rule:evenodd;stroke-linejoin:round;stroke-miterlimit:2;">
    <path d="M33.741,5C38.851,5 43,9.149 43,14.259L43,33.741C43,38.851 38.851,43 33.741,43L14.259,43C9.149,43 5,38.851 5,33.741L5,14.259C5,9.149 9.149,5 14.259,5L33.741,5ZM32.458,29.135L24,37.593L15.556,29.149L18.742,25.964L24,31.222L29.273,25.949L32.458,29.135ZM20.691,23.985L20.706,24L20.691,24.015L24,27.324L27.324,24L24,20.676L20.691,23.985ZM16.792,23.985C16.779,23.998 16.78,24.002 16.792,24.015L13.607,27.2L10.407,24L13.607,20.8L16.792,23.985ZM37.593,24L34.408,27.185L31.222,24L34.408,20.815L37.593,24ZM32.458,18.865L29.273,22.051L24,16.778L18.742,22.036L15.556,18.851L24,10.407L32.458,18.865Z" style="fill:white;"/>
</svg>
