<?xml version="1.0" encoding="UTF-8" standalone="no"?>
<!DOCTYPE svg PUBLIC "-//W3C//DTD SVG 1.1//EN" "http://www.w3.org/Graphics/SVG/1.1/DTD/svg11.dtd">
<svg width="100%" height="100%" viewBox="0 0 48 48" version="1.1" xmlns="http://www.w3.org/2000/svg" xmlns:xlink="http://www.w3.org/1999/xlink" xml:space="preserve" xmlns:serif="http://www.serif.com/" style="fill-rule:evenodd;clip-rule:evenodd;stroke-linejoin:round;stroke-miterlimit:2;">
    <path d="M41,43L7,43C5.896,43 5,42.104 5,41L5,7C5,5.896 5.896,5 7,5L41,5C42.104,5 43,5.896 43,7L43,41C43,42.104 42.104,43 41,43ZM27.091,12.151L12.654,12.151C12.46,12.151 12.274,12.228 12.137,12.366C11.999,12.503 11.922,12.689 11.922,12.883L11.922,27.32C11.922,27.514 11.999,27.7 12.137,27.837C12.274,27.975 12.46,28.052 12.654,28.052L18.493,28.052C18.493,33.201 22.674,37.381 27.823,37.381C32.972,37.381 37.152,33.201 37.152,28.052C37.152,22.903 32.972,18.722 27.823,18.722L27.823,12.883C27.819,12.577 27.628,12.298 27.337,12.194C27.258,12.166 27.175,12.152 27.091,12.151ZM27.091,28.052L18.493,28.052C18.493,22.903 22.674,18.722 27.823,18.722L27.823,27.32C27.537,28.01 27.781,27.766 27.091,28.052Z" style="fill:white;"/>
</svg>
