<?xml version="1.0" encoding="UTF-8" standalone="no"?>
<!DOCTYPE svg PUBLIC "-//W3C//DTD SVG 1.1//EN" "http://www.w3.org/Graphics/SVG/1.1/DTD/svg11.dtd">
<svg width="100%" height="100%" viewBox="0 0 48 48" version="1.1" xmlns="http://www.w3.org/2000/svg" xmlns:xlink="http://www.w3.org/1999/xlink" xml:space="preserve" xmlns:serif="http://www.serif.com/" style="fill-rule:evenodd;clip-rule:evenodd;stroke-linejoin:round;stroke-miterlimit:2;">
    <path d="M7.685,43C7.705,40.766 8.069,38.313 8.834,35.701C10.192,30.944 16.246,19.252 24.588,20.16C31.599,21.37 27.266,33.849 27.266,33.849C27.266,33.849 23.812,43.108 19.233,42.346C14.448,41.511 17.268,34.2 18.975,32.191C18.975,32.191 20.113,30.666 18.535,30.073C18.535,30.073 17.41,29.565 16.304,30.944C15.198,32.324 13.335,35.12 13.335,39.169C13.335,40.831 13.782,42.076 14.458,43L7.685,43ZM41,5C42.104,5 43,5.896 43,7L43,7.877C41.069,6.661 37.655,6.835 34.177,9.883C31.199,12.492 29.468,16.487 31.495,18.538C33.41,20.475 38.248,19.337 41.119,17.061C41.845,16.486 42.476,15.874 43,15.245L43,41C42.997,41.235 42.96,41.466 42.879,41.687C42.672,42.251 42.21,42.702 41.641,42.895C41.434,42.965 41.219,42.997 41,43L24.929,43C26.636,41.517 28.398,39.217 29.995,35.749C29.995,35.749 36.1,21.08 26.839,17.715C26.839,17.715 14.37,13.164 5.859,33.256C5.546,33.995 5.253,34.873 5,35.85L5,7C5.003,6.765 5.04,6.534 5.121,6.313C5.403,5.543 6.135,5.032 6.948,5.001L7,5L24.572,5C23.93,5.876 23.419,7.068 23.164,8.597C22.651,11.671 23.608,15.034 25.893,15.375C28.051,15.697 30.452,12.674 31.067,9.862C31.48,7.974 31.351,6.24 30.721,5L41,5ZM38.196,29.94C39.101,29.698 39.489,29.092 38.48,28.076C37.522,27.11 35.971,26.091 33.151,25.365C33.151,25.365 33.436,28.826 32.401,32.578C33.72,31.489 36.126,30.497 38.196,29.94ZM26.271,27.076C26.855,25.946 26.734,24.76 26.002,24.429C25.268,24.098 24.201,24.746 23.617,25.876C23.033,27.006 23.154,28.191 23.887,28.523C24.62,28.854 25.687,28.206 26.271,27.076ZM11.185,17.227C12.548,18.355 14.541,18.883 15.468,17.919C16.343,17.008 15.632,15.017 14.435,13.917C13.013,12.611 11.269,12.233 10.217,13.224C9.37,14.023 9.347,15.705 11.185,17.227ZM20.311,15.637C21.944,14.952 22.157,11.914 21.246,9.764C20.164,7.21 18.147,5.688 16.244,6.375C14.71,6.93 13.733,9.13 15.226,12.212C16.332,14.497 18.583,16.362 20.311,15.637Z" style="fill:white;"/>
</svg>
