<?xml version="1.0" encoding="UTF-8"?>
<!DOCTYPE svg  PUBLIC '-//W3C//DTD SVG 1.1//EN'  'http://www.w3.org/Graphics/SVG/1.1/DTD/svg11.dtd'>
<svg clip-rule="evenodd" fill-rule="evenodd" stroke-linejoin="round" stroke-miterlimit="2" version="1.1" viewBox="0 0 48 48" xml:space="preserve" xmlns="http://www.w3.org/2000/svg">
    <g transform="matrix(.074557 0 0 .074557 10.561 21.888)">
        <path d="m0 56.668c0-114.32 93.647-207 209.17-207 110.86 0 201.57 85.362 208.7 193.29 0.298-4.84 0.468-9.713 0.468-14.627 0-130.43-106.59-236.17-238.08-236.17-131.49 0-238.08 105.74-238.08 236.17 0 130.43 106.59 236.17 238.08 236.17 7.268 0 14.452-0.342 21.553-0.974-112.11-3.84-201.8-94.976-201.8-206.86" fill="#fff" fill-rule="nonzero"/>
    </g>
    <g transform="matrix(.074557 0 0 .074557 34.798 27.062)">
        <path d="m0-1.067c-42.119 0-76.263-33.858-76.263-75.624 0-32.481 20.656-60.173 49.65-70.882-23.116-11.915-49.387-18.658-77.253-18.658-92.486 0-167.46 74.185-167.46 165.7 0 91.512 74.973 165.7 167.46 165.7 92.484 0 167.46-74.185 167.46-165.7 0-10.408-0.98-20.588-2.835-30.464-13.928 18.182-35.955 29.93-60.757 29.93" fill="#fff" fill-rule="nonzero"/>
    </g>
</svg>
