<?xml version="1.0" encoding="UTF-8"?>
<!DOCTYPE svg  PUBLIC '-//W3C//DTD SVG 1.1//EN'  'http://www.w3.org/Graphics/SVG/1.1/DTD/svg11.dtd'>
<svg clip-rule="evenodd" fill-rule="evenodd" stroke-linejoin="round" stroke-miterlimit="2" version="1.1" viewBox="0 0 48 48" xml:space="preserve" xmlns="http://www.w3.org/2000/svg">
    
        <path d="m24 2c12.142 0 22 9.858 22 22s-9.858 22-22 22-22-9.858-22-22 9.858-22 22-22zm-13.439 24.112c0-8.523 6.982-15.433 15.595-15.433 8.266 0 15.028 6.365 15.56 14.412 0.022-0.361 0.035-0.725 0.035-1.091 0-9.725-7.948-17.608-17.751-17.608s-17.751 7.883-17.751 17.608 7.948 17.608 17.751 17.608c0.542 0 1.077-0.026 1.607-0.073-8.358-0.286-15.046-7.081-15.046-15.423zm24.237 0.87c-3.141 0-5.686-2.524-5.686-5.638 0-2.422 1.54-4.486 3.701-5.285-1.723-0.888-3.682-1.391-5.759-1.391-6.896 0-12.485 5.531-12.485 12.354s5.589 12.354 12.485 12.354c6.895 0 12.485-5.531 12.485-12.354 0-0.776-0.073-1.535-0.212-2.271-1.038 1.355-2.68 2.231-4.529 2.231z" fill="#fff"/>
    
</svg>
