<?xml version="1.0" encoding="UTF-8"?>
<!DOCTYPE svg  PUBLIC '-//W3C//DTD SVG 1.1//EN'  'http://www.w3.org/Graphics/SVG/1.1/DTD/svg11.dtd'>
<svg clip-rule="evenodd" fill-rule="evenodd" stroke-linejoin="round" stroke-miterlimit="2" version="1.1" viewBox="0 0 48 48" xml:space="preserve" xmlns="http://www.w3.org/2000/svg">
    <path d="m34.712 5c4.574 0 8.288 3.714 8.288 8.288v21.424c0 4.574-3.714 8.288-8.288 8.288h-21.424c-4.574 0-8.288-3.714-8.288-8.288v-21.424c0-4.574 3.714-8.288 8.288-8.288h21.424zm3.683 27.067h-3.694v3.695h3.694v-3.695zm-12.171 3.695c2.021 0 3.959-0.803 5.388-2.232 1.428-1.429 2.231-3.367 2.231-5.387v-8.575c0-2.021-0.803-3.959-2.231-5.388-1.429-1.428-3.367-2.231-5.388-2.231h-12.104v23.813h12.104zm-0.696-20.118c1.394 0 2.73 0.553 3.716 1.539 0.985 0.985 1.539 2.322 1.539 3.715v5.914c0 1.394-0.554 2.73-1.539 3.716-0.986 0.985-2.322 1.539-3.716 1.539h-8.348v-16.423h8.348z" fill="#fff"/>
</svg>
