<?xml version="1.0" encoding="UTF-8"?>
<!DOCTYPE svg  PUBLIC '-//W3C//DTD SVG 1.1//EN'  'http://www.w3.org/Graphics/SVG/1.1/DTD/svg11.dtd'>
<svg clip-rule="evenodd" fill-rule="evenodd" stroke-linejoin="round" stroke-miterlimit="2" version="1.1" viewBox="0 0 48 48" xml:space="preserve" xmlns="http://www.w3.org/2000/svg">
    <path d="m41 43h-34c-1.104 0-2-0.896-2-2v-34c0-1.104 0.896-2 2-2h34c1.104 0 2 0.896 2 2v34c0 1.104-0.896 2-2 2zm-10.656-14.349c0.052 0.235 0.116 0.384 0.116 0.384s-0.452 1.059-0.522 1.613-1e-3 1.413-1e-3 1.413 0.455 0.577 0.749 0.378c0.347-0.235 7e-3 -1.695 0.724-2.896 0 0 1.35 0.018 2.208-1.063 1.247-1.569-0.211-2.341-0.211-2.341s-0.212-0.215-0.721 0.221c-0.51 0.436-1.754 1.906-1.754 1.906s-0.313-0.301 0.141-0.996c0.453-0.695 0.589-0.907 0.57-1.073-0.019-0.165-0.12-0.238-0.12-0.238s-0.314 0.22-0.622 0.571c0.059-0.124-0.099-0.279-0.168-0.371-0.105-0.14-0.623-0.222-1.257-0.194s-1.759 0.222-1.759 0.222l1e-3 4e-3c0.042 0.179 0.279 0.358 0.436 0.372 0.158 0.014 0.186 0.348 0.186 0.348l-0.279 0.404-0.316-0.014 0.039 0.416s-0.251 0.487-0.291 0.877 0.04 0.85 0.741 0.863c0.666 0.014 2.009-0.525 2.11-0.806zm-19.293-6.641c-0.103 0-0.202 4e-3 -0.299 0.011-2.154 0.164-2.353 0.449-2.314 0.788v4e-3c0.045 0.334 0.89 0.282 0.89 0.15s-0.338-0.066-0.338-0.184c0-0.119 0.222-0.441 3.186 0 2.964 0.44 5.837 2.824 5.779 4.434-0.045 1.251-1.645 1.817-2.672 1.883s-1.937-0.25-1.937-0.25l-0.019-2.169s2.45 0.22 2.45 0.492c0 0.273-0.455 0.515-0.455 0.515s1.093 0.317 1.132-0.603c0.055-1.314-3.049-1.184-3.049-1.184s-0.117-1.684-0.514-1.684-0.358 1.706-0.358 1.706-2.555 0.221-2.555 1.14 2.36 2.191 2.36 2.191 0.04 0.81 0.495 0.81 0.474-0.471 0.474-0.471 4.91 1.048 5.597-2.243c0.514-2.463-4.847-5.335-7.835-5.336h-0.018zm26.484 4.534s-0.054-1.916-0.247-2.145l-0.79 0.035c0.129 0.564 0.146 1.388 0.117 2.11h-1.865v1.038h1.865v1.913h0.92v-1.913h2.09v-1.038h-2.09zm-11.211-0.983c-0.063 1e-3 -0.111 8e-3 -0.137 8e-3h-2e-3c-0.089 5e-3 2e-3 0.292 2e-3 0.292s0.331 0.766 0.41 1.142 0.013 1.265 0.013 1.265-0.236-0.218-0.463-0.542c-0.188-0.269-0.352-0.623-0.529-0.863-0.541-0.737-0.767-0.598-0.767-0.598s-0.132 0.195-0.29 0.445-0.292 1.336-0.318 1.475-0.105 1.21 0.331 1.21c0.437 0 0.356-0.931 0.343-1.321s0.265-0.711 0.265-0.711 0.991 1.865 1.402 1.865c0.41 0 0.752-0.459 0.886-1.112 0.133-0.654-0.305-1.727-0.557-2.184-0.177-0.322-0.419-0.371-0.578-0.371h-0.011zm-2.973 0.398c-0.754 3e-3 -1.857 0.071-2.079 0.139-0.226 0.069-1.059 0.307-1.099 0.891-0.039 0.584 0.648 0.556 0.992 0.542 0.344-0.013 2.38 0.112 2.393 0.599s-0.82 0.514-1.375 0.542-1.483 0.026-1.441-0.348c0.041-0.375 0.462-0.278 0.462-0.278s0.491 0.347 1.046 0.347 0.872-0.222 0.872-0.222-0.582-0.459-1.56-0.501c-0.979-0.041-1.203 0.361-1.216 0.765s0.939 0.932 2.036 0.932 1.747-0.515 1.758-1.21c0.013-0.849-1.546-1.029-1.903-1.015-0.357 0.013-1.239-0.049-1.23-0.222 0.013-0.265 1.693-0.224 2.222-0.279 0.524-0.055 0.984-0.139 0.991-0.317v-4e-3c0-0.18-0.252-0.361-0.833-0.361h-0.036zm-3.674 0.028c-0.266 3e-3 -0.292 0.34-0.331 0.792-0.063 0.73-0.173 2.533 0.25 2.56 0.424 0.028 0.611-0.195 0.57-1.015-0.041-0.817 0-2.311-0.47-2.337h-0.012-7e-3zm13.751 0.815c0.074 2e-3 0.118 0.049 0.123 0.146 0.011 0.21-0.067 0.748-0.356 1.09-0.443 0.525-1.054 0.57-1.27 0.592l-0.02 2e-3c-0.196 0.023 0.874-1.444 1.157-1.657 0.15-0.113 0.276-0.173 0.362-0.173h4e-3zm-20.973-0.169-0.077 1.926s-2.217-0.853-2.139-1.456c0.077-0.603 2.216-0.47 2.216-0.47zm18.392-0.041c-0.196 0.233-0.382 0.516-0.477 0.827-0.125 0.412-0.103 0.814-0.05 1.114-0.122-0.184-0.579-0.161-0.804-0.161-0.252 0-1.137 0.097-1.137 0.097s0.04-0.124 0.092-0.32c0.053-0.196 0.252-0.361 0.252-0.361s0.951-0.014 1.176-0.014c0.226 0 0.318-0.085 0.345-0.265 0.026-0.18-0.213-0.222-0.213-0.222s-0.602-0.042-0.836-0.028l-0.021 1e-3c-0.217 0.012-0.279-0.075-0.24-0.279 0.04-0.208 0.424-0.208 0.424-0.208s0.634 0.013 1.215-0.085c0.135-0.023 0.222-0.056 0.274-0.096zm-9.213-3.361s0.489-0.028 0.673 0.279c0 0 0.437 0.919-1.097 1.517-1.6 0.624-1.93 0.263-1.93 0.263s-0.212 0.266-0.384 0.293c-0.171 0.028-0.304-0.501-0.291-0.584s-0.251-0.388-0.198-0.653 0.475-1.085 1.216-1.323c0.741-0.237 1.255-0.305 1.388-0.222 0.133 0.084 0.623 0.43 0.623 0.43zm-2.025 1.586s0.477-0.555 1.01-0.93c0.448-0.314 0.949-0.513 1.212-0.127 0.172 0.251-0.21 0.529-0.823 0.821-0.723 0.349-1.399 0.236-1.399 0.236zm-0.634-0.319s0.186-0.334 0.41-0.487c0.224-0.152 0.687-0.431 0.687-0.431s-0.527-0.096-0.845 0.265c-0.318 0.36-0.252 0.653-0.252 0.653zm17.297-0.498h0.915c-4.91-10.773-16.665-9.964-21.918-4.235 4.6-3.551 15.462-7.101 21.003 4.235z" fill="#fff"/>
</svg>
