<?xml version="1.0" encoding="UTF-8"?>
<!DOCTYPE svg  PUBLIC '-//W3C//DTD SVG 1.1//EN'  'http://www.w3.org/Graphics/SVG/1.1/DTD/svg11.dtd'>
<svg clip-rule="evenodd" fill-rule="evenodd" stroke-linejoin="round" stroke-miterlimit="2" version="1.1" viewBox="0 0 48 48" xml:space="preserve" xmlns="http://www.w3.org/2000/svg">
    <path d="m41 5c1.104 0 2 0.896 2 2v34c0 1.104-0.896 2-2 2h-34c-1.104 0-2-0.896-2-2v-34c0-1.104 0.896-2 2-2h34zm-13.012 21.65c0.04-0.011 0.082-0.016 0.126-0.016 0.03 0 0.06 3e-3 0.088 8e-3 0.325-0.031 0.608-0.144 0.834-0.313 0.222-0.166 0.382-0.382 0.44-0.612 0.124-0.487-0.267-0.897-1.233-1.033l0.83-0.83c0.432 0.145 0.749 0.35 0.968 0.579 0.429 0.447 0.539 1 0.404 1.53-0.179 0.707-0.871 1.413-1.831 1.629v0.526c0 0.276-0.224 0.5-0.5 0.5s-0.5-0.224-0.5-0.5v-0.485c-0.619-0.084-1.297-0.369-1.991-0.942-0.213-0.176-0.243-0.491-0.067-0.704s0.491-0.243 0.704-0.067c0.616 0.509 1.214 0.721 1.728 0.73zm8.249-2.044v2.912c0 0.276 0.224 0.5 0.5 0.5s0.5-0.224 0.5-0.5v-6.732c0-0.276-0.224-0.5-0.5-0.5s-0.5 0.224-0.5 0.5v2.82h-3.504v-2.82c0-0.276-0.224-0.5-0.5-0.5s-0.5 0.224-0.5 0.5v6.732c0 0.276 0.224 0.5 0.5 0.5s0.5-0.224 0.5-0.5v-2.912h3.504zm-15.057-4.094c1.994 0 3.612 1.619 3.612 3.612 0 1.994-1.618 3.612-3.612 3.612-1.993 0-3.611-1.618-3.611-3.612 0-1.993 1.618-3.612 3.611-3.612zm-7.668 7.083c0.902 0 1.766-0.358 2.404-0.995 0.638-0.638 0.996-1.503 0.996-2.405v-1e-3c0-0.902-0.358-1.767-0.996-2.404-0.638-0.638-1.502-0.996-2.404-0.996h-2.839v6.801h2.839zm7.668-5.812c1.293 0 2.342 1.049 2.342 2.341 0 1.293-1.049 2.342-2.342 2.342-1.292 0-2.341-1.049-2.341-2.342 0-1.292 1.049-2.341 2.341-2.341zm-7.693 0c1.268 0 2.295 1.027 2.295 2.294v0.094c0 1.268-1.027 2.295-2.295 2.295h-1.778v-4.683h1.778zm15.035-0.973c0.45 0.095 0.961 0.277 1.533 0.572 0.245 0.127 0.342 0.429 0.215 0.674-0.126 0.245-0.428 0.342-0.673 0.215-0.744-0.384-1.345-0.55-1.816-0.552-0.356-2e-3 -0.619 0.092-0.78 0.267-0.175 0.19-0.213 0.462-0.149 0.721 0.102 0.414 0.462 0.793 1.033 0.92l-0.786 0.786c-1.331-0.631-1.616-2.256-0.834-3.104 0.268-0.291 0.684-0.517 1.257-0.57v-0.629c0-0.276 0.224-0.5 0.5-0.5 0.275 0 0.5 0.224 0.5 0.5v0.7z" fill="#fff"/>
</svg>
