<?xml version="1.0" encoding="UTF-8"?>
<!DOCTYPE svg  PUBLIC '-//W3C//DTD SVG 1.1//EN'  'http://www.w3.org/Graphics/SVG/1.1/DTD/svg11.dtd'>
<svg clip-rule="evenodd" fill-rule="evenodd" stroke-linejoin="round" stroke-miterlimit="2" version="1.1" viewBox="0 0 48 48" xml:space="preserve" xmlns="http://www.w3.org/2000/svg">
    <path d="m24 2c12.142 0 22 9.858 22 22s-9.858 22-22 22-22-9.858-22-22 9.858-22 22-22zm0 4.688c-9.674 0-17.518 7.763-17.518 17.312s7.844 17.312 17.518 17.312 17.518-7.763 17.518-17.312-7.844-17.312-17.518-17.312zm2.244 20.212c-0.418 0.124-0.828 0.264-1.23 0.418-3.764 1.448-6.832 4.24-9.437 8.337 2.377 1.673 5.285 2.657 8.423 2.657 1.874 0 3.665-0.351 5.311-0.99-0.791-3.689-1.824-7.153-3.067-10.422zm11.98-0.025c-3.325-0.709-6.31-0.912-9.003-0.586 1.13 3.034 2.087 6.229 2.848 9.607 3.115-2.058 5.379-5.273 6.155-9.021zm-13.966-4.669c-4.162 1.249-9.104 1.821-14.776 1.741v0.053c0 3.724 1.445 7.115 3.811 9.662 2.943-4.497 6.439-7.527 10.644-9.144 0.385-0.148 0.777-0.284 1.176-0.409-0.277-0.642-0.562-1.276-0.855-1.903zm11.184-7.012c-2.1 2.579-4.893 4.575-8.343 6.005 0.338 0.731 0.666 1.471 0.983 2.222 3.106-0.486 6.565-0.342 10.435 0.45-0.029-3.271-1.173-6.28-3.075-8.677zm-17.686-4.116c-3.992 1.879-6.98 5.504-7.943 9.873 5.008 0.056 9.398-0.401 13.111-1.442-1.55-2.971-3.283-5.772-5.168-8.431zm15.57 1.957c-2.524-2.089-5.778-3.347-9.326-3.347-1.133 0-2.236 0.128-3.295 0.371 1.854 2.677 3.561 5.492 5.092 8.471 3.138-1.28 5.664-3.093 7.529-5.495z" fill="#fff" fill-opacity=".5"/>
</svg>
