<?xml version="1.0" encoding="UTF-8"?>
<!DOCTYPE svg  PUBLIC '-//W3C//DTD SVG 1.1//EN'  'http://www.w3.org/Graphics/SVG/1.1/DTD/svg11.dtd'>
<svg clip-rule="evenodd" fill-rule="evenodd" stroke-linejoin="round" stroke-miterlimit="2" version="1.1" viewBox="0 0 48 48" xml:space="preserve" xmlns="http://www.w3.org/2000/svg">
    <path d="m24 2c12.142 0 22 9.858 22 22s-9.858 22-22 22-22-9.858-22-22 9.858-22 22-22zm-0.711 34.386c-1.468 0-2.658 1.189-2.658 2.657s1.19 2.658 2.658 2.658 2.658-1.19 2.658-2.658-1.19-2.657-2.658-2.657zm7.319-7.982c-1.722 0-3.118 1.396-3.118 3.118s1.396 3.118 3.118 3.118 3.119-1.396 3.119-3.118-1.397-3.118-3.119-3.118zm-7.319 0.354c-1.526 0-2.764 1.238-2.764 2.764 0 1.527 1.238 2.764 2.764 2.764 1.527 0 2.764-1.237 2.764-2.764 0-1.526-1.237-2.764-2.764-2.764zm-7.414 0.354c-1.331 0-2.41 1.079-2.41 2.41s1.079 2.41 2.41 2.41 2.41-1.079 2.41-2.41-1.079-2.41-2.41-2.41zm22.247-8.691c-1.977 0-3.579 1.602-3.579 3.579s1.602 3.579 3.579 3.579 3.579-1.602 3.579-3.579-1.602-3.579-3.579-3.579zm-7.514 0.355c-1.781 0-3.224 1.443-3.224 3.224s1.443 3.225 3.224 3.225 3.225-1.444 3.225-3.225-1.444-3.224-3.225-3.224zm-7.319 0.354c-1.585 0-2.87 1.285-2.87 2.87s1.285 2.871 2.87 2.871c1.586 0 2.871-1.286 2.871-2.871s-1.285-2.87-2.871-2.87zm-7.414 0.354c-1.389 0-2.516 1.127-2.516 2.516 0 1.39 1.127 2.516 2.516 2.516 1.39 0 2.516-1.126 2.516-2.516 0-1.389-1.126-2.516-2.516-2.516zm-7.415 0.355c-1.193 0-2.161 0.967-2.161 2.161s0.968 2.162 2.161 2.162c1.194 0 2.162-0.968 2.162-2.162s-0.968-2.161-2.162-2.161zm22.148-8.479c-1.722 0-3.118 1.396-3.118 3.118s1.396 3.118 3.118 3.118 3.119-1.396 3.119-3.118-1.397-3.118-3.119-3.118zm-7.319 0.354c-1.526 0-2.764 1.237-2.764 2.764 0 1.526 1.238 2.764 2.764 2.764 1.527 0 2.764-1.238 2.764-2.764 0-1.527-1.237-2.764-2.764-2.764zm-7.414 0.354c-1.331 0-2.41 1.079-2.41 2.41s1.079 2.409 2.41 2.409 2.41-1.078 2.41-2.409-1.079-2.41-2.41-2.41zm10.072-5.111c0 1.468-1.19 2.657-2.658 2.657s-2.658-1.189-2.658-2.657 1.19-2.658 2.658-2.658 2.658 1.19 2.658 2.658z" fill="#fff"/>
</svg>
