<?xml version="1.0" encoding="UTF-8"?>
<!DOCTYPE svg  PUBLIC '-//W3C//DTD SVG 1.1//EN'  'http://www.w3.org/Graphics/SVG/1.1/DTD/svg11.dtd'>
<svg clip-rule="evenodd" fill-rule="evenodd" stroke-linejoin="round" stroke-miterlimit="2" version="1.1" viewBox="0 0 48 48" xml:space="preserve" xmlns="http://www.w3.org/2000/svg">
    <path d="m24 2c12.142 0 22 9.858 22 22s-9.858 22-22 22-22-9.858-22-22 9.858-22 22-22zm5.51 23.752c6e-3 -0.038 0.013-0.069 0.016-0.1 8e-3 -0.092 0.015-0.183 0.023-0.275 0.043-0.469 0-0.93-0.127-1.383-0.15-0.534-0.415-1.001-0.829-1.377-0.449-0.407-0.985-0.625-1.58-0.706-0.465-0.064-0.93-0.051-1.388 0.053-1.097 0.246-1.885 0.877-2.318 1.919-0.296 0.711-0.365 1.454-0.196 2.207 0.278 1.24 1.018 2.088 2.222 2.512 0.652 0.23 1.328 0.256 2.009 0.166 0.613-0.08 1.191-0.27 1.73-0.576 0.157-0.089 0.309-0.187 0.456-0.306-0.273-0.52-0.541-1.03-0.81-1.544-0.03 0.018-0.052 0.03-0.073 0.044-0.338 0.212-0.697 0.377-1.082 0.482-0.325 0.089-0.654 0.128-0.99 0.081-0.565-0.081-1.082-0.425-1.25-1.133-4e-3 -0.018-2e-3 -0.037-4e-3 -0.064h4.191zm-10.741-2.116v-1.598c-0.124-0.017-3.459-0.011-3.521 6e-3v1.594h0.743l0.921 2.513c0.306 0.834 0.612 1.668 0.917 2.502h2.631l0.919-2.507 0.92-2.511h0.737v-1.599h-3.513v1.605h0.579c-0.01 0.038-0.017 0.065-0.025 0.092-0.171 0.539-0.342 1.078-0.512 1.618-0.085 0.268-0.172 0.536-0.255 0.804-0.068 0.221-0.107 0.447-0.134 0.675-3e-3 0.028 8e-3 0.067-0.049 0.075-7e-3 -0.04-0.015-0.078-0.02-0.116-0.029-0.24-0.076-0.476-0.15-0.707-0.25-0.788-0.5-1.576-0.749-2.364-8e-3 -0.023-0.012-0.047-0.02-0.082h0.581zm21.215 5.016v-1.603c-0.3-4e-3 -0.594 2e-3 -0.889-4e-3 -3e-3 -0.026-5e-3 -0.04-5e-3 -0.054 0-0.336-4e-3 -0.672 2e-3 -1.009 4e-3 -0.25 0.039-0.498 0.116-0.738 0.173-0.538 0.518-0.906 1.067-1.068 0.25-0.074 0.508-0.095 0.768-0.08 0.103 6e-3 0.206 0.016 0.319 0.025v-2.18c-0.113-0.024-0.224-0.034-0.336-0.028-0.348 0.019-0.673 0.117-0.97 0.299-0.495 0.302-0.834 0.731-1.034 1.273-8e-3 0.021-0.018 0.042-0.03 0.07 3e-3 -0.231 7e-3 -0.449 7e-3 -0.667 0-0.077-5e-3 -0.155-0.017-0.232-0.047-0.282-0.201-0.476-0.478-0.566-0.135-0.044-0.274-0.06-0.416-0.06h-2.044c-0.025 0-0.05 3e-3 -0.075 5e-3v1.604h0.1c0.163 0 0.327-1e-3 0.491 1e-3 0.091 0 0.179 0.015 0.242 0.091 0.048 0.058 0.06 0.129 0.06 0.202 0 1.012 0 2.024-1e-3 3.037 0 0.024-4e-3 0.048-7e-3 0.08h-0.886v1.602h4.016zm-30.214-6.624c0-0.145-7e-3 -0.282 2e-3 -0.419 0.013-0.188 0.107-0.334 0.275-0.42 0.081-0.041 0.17-0.072 0.259-0.089 0.21-0.042 0.423-0.04 0.636-0.026 0.102 7e-3 0.204 0.016 0.309 0.024v-1.745c-0.082-0.01-0.162-0.023-0.241-0.029-0.385-0.03-0.77-0.034-1.154 0.013-0.338 0.041-0.668 0.115-0.981 0.25-0.694 0.299-1.13 0.81-1.281 1.556-0.052 0.255-0.063 0.513-0.061 0.772v0.113c-0.307 5e-3 -0.601-2e-3 -0.895 4e-3v1.608h0.89v3.408h-0.823v1.603h4.029v-1.605h-0.958c-0.02-0.091-0.017-3.336 1e-3 -3.402h2.661c0.017 0.103 0.013 3.336-6e-3 3.403-0.269 2e-3 -0.541-1e-3 -0.811 2e-3 -0.018 0.147-0.011 1.541 7e-3 1.603h3.881v-1.605h-0.822c-6e-3 -0.017-7e-3 -0.02-8e-3 -0.022-1e-3 -3e-3 -2e-3 -6e-3 -2e-3 -9e-3 -1e-3 -3e-3 -1e-3 -6e-3 -1e-3 -8e-3v-0.018-4.882c0-6e-3 -1e-3 -0.011-1e-3 -0.017v-0.017c0-6e-3 -1e-3 -0.012-2e-3 -0.017 0-3e-3 -1e-3 -6e-3 -2e-3 -9e-3 -1e-3 -2e-3 -2e-3 -5e-3 -4e-3 -7e-3s-4e-3 -4e-3 -0.014-0.013h-4.883zm23.427 5.019c-3e-3 -0.031-5e-3 -0.048-5e-3 -0.065 0-0.316-3e-3 -0.632 1e-3 -0.948 4e-3 -0.283 0.038-0.562 0.131-0.831 0.17-0.496 0.492-0.843 0.996-1.01 0.245-0.081 0.499-0.108 0.756-0.1 0.128 4e-3 0.256 0.017 0.387 0.026v-2.178c-0.114-0.025-0.225-0.034-0.337-0.027-0.323 0.017-0.628 0.103-0.91 0.264-0.517 0.296-0.873 0.728-1.083 1.284-0.011 0.03-0.023 0.059-0.035 0.088-0.01-0.068-1e-3 -0.13 0-0.193 3e-3 -0.175 4e-3 -0.351 2e-3 -0.526-1e-3 -0.066-7e-3 -0.132-0.02-0.197-0.052-0.271-0.204-0.456-0.471-0.543-0.121-0.039-0.245-0.06-0.372-0.06-0.702-1e-3 -1.403-1e-3 -2.105-1e-3 -0.022 0-0.043 5e-3 -0.064 8e-3v1.597c0.032 1e-3 0.06 4e-3 0.088 4e-3 0.164 0 0.328 1e-3 0.492 0 0.213-2e-3 0.317 0.099 0.316 0.314-4e-3 1.001-2e-3 2.001-2e-3 3.002 0 0.028-2e-3 0.056-4e-3 0.091-0.3 4e-3 -0.594-1e-3 -0.887 3e-3 -0.017 0.144-0.011 1.541 6e-3 1.603h4.01v-1.605h-0.89zm-5.945-2.524h-1.879c-2e-3 -0.016-5e-3 -0.025-3e-3 -0.032 0.067-0.273 0.174-0.528 0.397-0.709 0.286-0.232 0.611-0.305 0.96-0.165 0.255 0.102 0.401 0.311 0.479 0.566 0.029 0.095 0.036 0.197 0.052 0.296 2e-3 0.013-4e-3 0.027-6e-3 0.044zm-14.758-4.272c2e-3 -0.592 0.48-1.068 1.071-1.067 0.592 1e-3 1.074 0.487 1.07 1.079-4e-3 0.588-0.488 1.066-1.078 1.063-0.592-4e-3 -1.065-0.482-1.063-1.075z" fill="#fff"/>
</svg>
