<?xml version="1.0" encoding="UTF-8"?>
<!DOCTYPE svg  PUBLIC '-//W3C//DTD SVG 1.1//EN'  'http://www.w3.org/Graphics/SVG/1.1/DTD/svg11.dtd'>
<svg clip-rule="evenodd" fill-rule="evenodd" stroke-linejoin="round" stroke-miterlimit="2" version="1.1" viewBox="0 0 48 48" xml:space="preserve" xmlns="http://www.w3.org/2000/svg">
    <path d="m5 39.68 2.372 3.32h-0.372c-1.104 0-2-0.896-2-2v-1.32zm11.806-10.35 1.731 13.67h-4.011l-1.838-11.087-7.688-5.337v-4.19l11.806 6.944zm24.194-24.33c1.104 0 2 0.896 2 2v34c0 1.104-0.896 2-2 2h-15.483l11.587-26.96h-32.104v-9.04c1e-3 -0.226 0.038-0.451 0.113-0.664 0.197-0.558 0.644-1.011 1.2-1.215 0.212-0.077 0.435-0.117 0.661-0.121h0.026 34z" fill="#fff"/>
</svg>
