<?xml version="1.0" encoding="UTF-8"?>
<!DOCTYPE svg  PUBLIC '-//W3C//DTD SVG 1.1//EN'  'http://www.w3.org/Graphics/SVG/1.1/DTD/svg11.dtd'>
<svg clip-rule="evenodd" fill-rule="evenodd" stroke-linejoin="round" stroke-miterlimit="2" version="1.1" viewBox="0 0 48 48" xml:space="preserve" xmlns="http://www.w3.org/2000/svg">
    <path d="m24 2c12.142 0 22 9.858 22 22s-9.858 22-22 22-22-9.858-22-22 9.858-22 22-22zm-3.009 13.499c0.195 1e-3 0.388 0.033 0.573 0.096 0.296 0.102 0.563 0.284 0.767 0.523 0.149 0.175 0.262 0.379 0.333 0.598 0.057 0.175 0.085 0.358 0.086 0.542v5.716c-1.009 0.472-1.709 1.496-1.709 2.683s0.7 2.211 1.709 2.682v5.802c0 1.13 0.449 2.213 1.248 3.012 0.798 0.799 1.882 1.247 3.011 1.247h3.743c0.472 1.01 1.496 1.71 2.683 1.71 1.633 0 2.959-1.326 2.959-2.96 0-1.186-0.7-2.211-1.709-2.682v-17.536c1.009-0.472 1.709-1.496 1.709-2.683 0-1.633-1.326-2.959-2.959-2.959s-2.959 1.326-2.959 2.959c0 1.187 0.7 2.211 1.709 2.683v17.536c-0.629 0.294-1.139 0.803-1.433 1.432h-3.743c-0.184 0-0.367-0.028-0.542-0.085-0.219-0.071-0.423-0.185-0.598-0.334-0.239-0.203-0.421-0.47-0.523-0.767-0.064-0.184-0.095-0.378-0.096-0.573v-5.802c1.009-0.471 1.709-1.495 1.709-2.682s-0.7-2.211-1.709-2.683v-5.716c-1e-3 -0.462-0.076-0.924-0.224-1.362-0.133-0.395-0.324-0.769-0.566-1.108-0.244-0.343-0.539-0.649-0.873-0.906-0.395-0.304-0.844-0.538-1.32-0.687-0.413-0.13-0.844-0.195-1.276-0.196h-4.004c-0.294-0.629-0.804-1.138-1.433-1.432v-3.451h-2.5v3.451c-1.009 0.471-1.709 1.495-1.709 2.682s0.7 2.211 1.709 2.683v17.536c-1.009 0.471-1.709 1.496-1.709 2.682 0 1.634 1.326 2.96 2.959 2.96s2.959-1.326 2.959-2.96c0-1.186-0.7-2.211-1.709-2.682v-17.536c0.629-0.294 1.139-0.804 1.433-1.433h4.004z" fill="#fff"/>
</svg>
