<?xml version="1.0" encoding="UTF-8" standalone="no"?>
<!DOCTYPE svg PUBLIC "-//W3C//DTD SVG 1.1//EN" "http://www.w3.org/Graphics/SVG/1.1/DTD/svg11.dtd">
<svg width="100%" height="100%" viewBox="0 0 48 48" version="1.1" xmlns="http://www.w3.org/2000/svg" xmlns:xlink="http://www.w3.org/1999/xlink" xml:space="preserve" xmlns:serif="http://www.serif.com/" style="fill-rule:evenodd;clip-rule:evenodd;stroke-linejoin:round;stroke-miterlimit:2;">
    <path d="M24,2C36.142,2 46,11.858 46,24C46,36.142 36.142,46 24,46C11.858,46 2,36.142 2,24C2,11.858 11.858,2 24,2ZM14.383,31.388C16.443,31.388 18.116,33.061 18.116,35.121C18.116,37.182 16.443,38.855 14.383,38.855C12.322,38.855 10.649,37.182 10.649,35.121C10.649,33.061 12.322,31.388 14.383,31.388ZM27.773,24.106C27.773,22.023 26.082,20.332 24,20.332C21.918,20.332 20.227,22.023 20.227,24.106L20.227,35.082C20.227,37.164 21.918,38.855 24,38.855C26.082,38.855 27.773,37.164 27.773,35.082L27.773,24.106ZM37.351,12.879C37.351,10.818 35.678,9.145 33.617,9.145C31.557,9.145 29.884,10.818 29.884,12.879L29.884,35.121C29.884,37.182 31.557,38.855 33.617,38.855C35.678,38.855 37.351,37.182 37.351,35.121L37.351,12.879Z" style="fill:white;"/>
</svg>
