<?xml version="1.0" encoding="UTF-8"?>
<!DOCTYPE svg  PUBLIC '-//W3C//DTD SVG 1.1//EN'  'http://www.w3.org/Graphics/SVG/1.1/DTD/svg11.dtd'>
<svg clip-rule="evenodd" fill-rule="evenodd" stroke-linejoin="round" stroke-miterlimit="2" version="1.1" viewBox="0 0 48 48" xml:space="preserve" xmlns="http://www.w3.org/2000/svg">
    <path d="m24 2c12.142 0 22 9.858 22 22s-9.858 22-22 22-22-9.858-22-22 9.858-22 22-22zm4.674 10.359c-1.465-2.575-4.744-3.476-7.319-2.011s-3.476 4.744-2.011 7.319l10.226 17.974c1.465 2.575 4.745 3.476 7.32 2.011 2.574-1.465 3.476-4.744 2.011-7.319l-10.227-17.974zm-9.348 0c-2.472 4.344 0.598 7.341 4.348 14.065l-5.244 9.217c-1.465 2.575-4.745 3.476-7.32 2.011-2.574-1.465-3.476-4.744-2.011-7.319l10.227-17.974zm-1.462 23.543c0.593-0.831 0.942-1.846 0.942-2.94 0-2.81-2.297-5.092-5.125-5.092-1.928 0-3.608 1.06-4.483 2.623 0.897-1.471 2.517-2.454 4.365-2.454 2.819 0 5.108 2.289 5.108 5.108 0 1.014-0.296 1.96-0.807 2.755z" fill="#fff"/>
</svg>
