<?xml version="1.0" encoding="UTF-8"?>
<!DOCTYPE svg  PUBLIC '-//W3C//DTD SVG 1.1//EN'  'http://www.w3.org/Graphics/SVG/1.1/DTD/svg11.dtd'>
<svg clip-rule="evenodd" fill-rule="evenodd" stroke-linejoin="round" stroke-miterlimit="2" version="1.1" viewBox="0 0 48 48" xml:space="preserve" xmlns="http://www.w3.org/2000/svg">
    <path d="m24 2c12.142 0 22 9.858 22 22s-9.858 22-22 22-22-9.858-22-22 9.858-22 22-22zm-1.673 34.463c0.391 0.467 0.968 0.737 1.577 0.74 0.609 2e-3 1.188-0.265 1.583-0.73 3.311-3.903 10.904-12.853 13.931-16.421 0.732-0.862 0.635-2.152-0.218-2.895-9.938-8.591-21.141-8.371-30.436 0.012-0.816 0.742-0.902 1.996-0.194 2.843 2.958 3.546 10.475 12.529 13.757 16.451zm1.577-7.373 8.401-10.009c-5.189-3.562-11.854-3.45-16.723 0l8.322 10.009z" fill="#fff"/>
</svg>
