<?xml version="1.0" encoding="UTF-8" standalone="no"?>
<!DOCTYPE svg PUBLIC "-//W3C//DTD SVG 1.1//EN" "http://www.w3.org/Graphics/SVG/1.1/DTD/svg11.dtd">
<svg width="100%" height="100%" viewBox="0 0 48 48" version="1.1" xmlns="http://www.w3.org/2000/svg" xmlns:xlink="http://www.w3.org/1999/xlink" xml:space="preserve" xmlns:serif="http://www.serif.com/" style="fill-rule:evenodd;clip-rule:evenodd;stroke-linejoin:round;stroke-miterlimit:2;">
    <path d="M29.058,43.853C29.058,44.952 28.167,45.843 27.069,45.843C25.653,45.843 24,45.843 24,45.843L24,45.837L20.932,45.837C19.833,45.837 18.942,44.947 18.942,43.848C18.942,40.409 18.942,33.717 18.942,33.717C9.487,27.939 12.75,17.354 19.14,14.157L19.14,24.021L24,25.996L24,26.001L28.86,24.026L28.86,14.162C35.251,17.359 38.513,27.944 29.058,33.723L29.058,43.853ZM18.442,41.906L17.968,38.554C16.687,38.018 15.5,37.315 14.419,36.485L9.19,38.596C8.717,38.785 8.171,38.596 7.909,38.144L3.709,30.868C3.446,30.406 3.562,29.839 3.961,29.523L8.392,26.048C8.308,25.376 8.245,24.694 8.245,24.001C8.251,23.316 8.301,22.632 8.392,21.953L3.961,18.478C3.562,18.152 3.446,17.585 3.709,17.133L7.909,9.857C8.167,9.415 8.712,9.223 9.19,9.405L14.419,11.516C15.505,10.672 16.699,9.977 17.968,9.447L18.755,3.882C18.839,3.389 19.27,3.001 19.795,3L28.195,3C28.72,3 29.15,3.389 29.245,3.882L30.033,9.447C31.313,9.983 32.5,10.686 33.582,11.516L38.811,9.405C39.283,9.216 39.829,9.405 40.091,9.857L44.292,17.133C44.554,17.595 44.439,18.162 44.039,18.478L39.598,21.953C39.682,22.625 39.745,23.308 39.745,24.001C39.745,24.693 39.682,25.376 39.598,26.048L44.029,29.523C44.428,29.849 44.544,30.416 44.281,30.868L40.081,38.144C39.823,38.586 39.278,38.778 38.8,38.596L33.571,36.485C32.485,37.329 31.291,38.024 30.022,38.554L29.558,41.832L29.558,34C29.837,33.823 30.111,33.638 30.379,33.445L30.406,33.426C32.539,32.017 34.163,29.926 34.948,27.474C35.274,26.479 35.44,25.467 35.465,24.463C35.469,24.349 35.471,24.235 35.471,24.12C35.471,24.068 35.469,24.018 35.467,23.967C35.379,19.633 32.716,15.532 29.084,13.715C28.929,13.637 28.745,13.645 28.597,13.737C28.45,13.828 28.36,13.989 28.36,14.162L28.36,18.084C27.14,17.183 25.63,16.65 23.995,16.65C22.364,16.65 20.859,17.18 19.64,18.076L19.64,14.157C19.64,13.983 19.551,13.822 19.403,13.731C19.256,13.64 19.072,13.632 18.917,13.709C15.326,15.506 12.683,19.534 12.538,23.814C12.527,23.915 12.521,24.017 12.521,24.12C12.521,28.061 14.605,31.533 17.755,33.535L17.805,33.57C18.014,33.716 18.227,33.858 18.442,33.995L18.442,41.906Z" style="fill:white;fill-rule:nonzero;"/>
</svg>
