<?xml version="1.0" encoding="UTF-8" standalone="no"?>
<!DOCTYPE svg PUBLIC "-//W3C//DTD SVG 1.1//EN" "http://www.w3.org/Graphics/SVG/1.1/DTD/svg11.dtd">
<svg width="100%" height="100%" viewBox="0 0 48 48" version="1.1" xmlns="http://www.w3.org/2000/svg" xmlns:xlink="http://www.w3.org/1999/xlink" xml:space="preserve" xmlns:serif="http://www.serif.com/" style="fill-rule:evenodd;clip-rule:evenodd;stroke-linejoin:round;stroke-miterlimit:2;">
    <path d="M41,5C42.104,5 43,5.896 43,7L43,41C43,42.104 42.104,43 41,43L7,43C5.896,43 5,42.104 5,41L5,7C5,5.896 5.896,5 7,5L41,5ZM29.65,27.472C31.83,27.472 33.599,29.242 33.599,31.421C33.599,33.601 31.83,35.37 29.65,35.37C27.471,35.37 25.701,33.601 25.701,31.421C25.701,29.242 27.471,27.472 29.65,27.472ZM18.652,13.402C22.29,13.402 25.243,16.355 25.243,19.992C25.243,23.63 22.29,26.583 18.652,26.583C15.015,26.583 12.062,23.63 12.062,19.992C12.062,16.355 15.015,13.402 18.652,13.402ZM29.488,19.979C31.311,19.979 32.79,21.459 32.79,23.281C32.79,25.103 31.311,26.583 29.488,26.583C27.666,26.583 26.186,25.103 26.186,23.281C26.186,21.459 27.666,19.979 29.488,19.979ZM34.502,17.688C35.447,17.688 36.214,18.455 36.214,19.399C36.214,20.344 35.447,21.111 34.502,21.111C33.557,21.111 32.79,20.344 32.79,19.399C32.79,18.455 33.557,17.688 34.502,17.688Z" style="fill:white;"/>
</svg>
