<?xml version="1.0" encoding="UTF-8" standalone="no"?>
<!DOCTYPE svg PUBLIC "-//W3C//DTD SVG 1.1//EN" "http://www.w3.org/Graphics/SVG/1.1/DTD/svg11.dtd">
<svg width="100%" height="100%" viewBox="0 0 48 48" version="1.1" xmlns="http://www.w3.org/2000/svg" xmlns:xlink="http://www.w3.org/1999/xlink" xml:space="preserve" xmlns:serif="http://www.serif.com/" style="fill-rule:evenodd;clip-rule:evenodd;stroke-linejoin:round;stroke-miterlimit:2;">
    <path d="M41,5C42.104,5 43,5.896 43,7L43,41C43,42.104 42.104,43 41,43L7,43C5.896,43 5,42.104 5,41L5,7C5,5.896 5.896,5 7,5L41,5ZM23.94,38.363C32.724,34.288 34.998,27.508 34.665,19.646C27.515,17.079 20.365,16.885 13.214,19.646C12.828,29.692 17.175,35.188 23.94,38.363ZM27.758,30.299C27.758,28.637 26.686,27.024 25.196,26.431C26.087,25.984 26.7,25.061 26.7,23.997C26.7,22.495 25.481,21.276 23.979,21.276C22.477,21.276 21.258,22.495 21.258,23.997C21.258,25.057 21.866,25.976 22.751,26.425L22.75,26.425C22.618,26.477 22.489,26.537 22.364,26.604C21.957,26.823 21.593,27.117 21.285,27.461C20.788,28.015 20.433,28.699 20.271,29.426C20.207,29.713 20.175,30.006 20.174,30.299L27.758,30.299ZM28.356,16.912L31.09,17.385C31.037,7.518 16.842,7.518 16.842,17.28L19.734,16.965C19.734,10.726 28.254,11.426 28.356,16.912Z" style="fill:white;"/>
</svg>
