<?xml version="1.0" encoding="UTF-8" standalone="no"?>
<!DOCTYPE svg PUBLIC "-//W3C//DTD SVG 1.1//EN" "http://www.w3.org/Graphics/SVG/1.1/DTD/svg11.dtd">
<svg width="100%" height="100%" viewBox="0 0 48 48" version="1.1" xmlns="http://www.w3.org/2000/svg" xmlns:xlink="http://www.w3.org/1999/xlink" xml:space="preserve" xmlns:serif="http://www.serif.com/" style="fill-rule:evenodd;clip-rule:evenodd;stroke-linejoin:round;stroke-miterlimit:2;">
    <path d="M41,5C42.104,5 43,5.896 43,7L43,41C43,42.104 42.104,43 41,43L7,43C5.896,43 5,42.104 5,41L5,7C5,5.896 5.896,5 7,5L41,5ZM26.351,39.493L26.351,10.139L22.327,10.139C21.694,13.337 18.914,14.989 13.884,15.021L13.884,18.781L21.206,18.781L21.206,39.493L26.351,39.493ZM35.52,14.757L35.52,8.688L33.607,8.688L29.319,14.493L29.319,16.604L33.541,16.604L33.541,18.846L35.585,18.846L35.585,16.406L36.839,16.406L36.839,14.757L35.52,14.757ZM33.541,11.525C32.705,12.58 31.87,13.635 31.034,14.691L33.541,14.691L33.541,11.525Z" style="fill:white;"/>
</svg>
