<?xml version="1.0" encoding="UTF-8" standalone="no"?>
<!DOCTYPE svg PUBLIC "-//W3C//DTD SVG 1.1//EN" "http://www.w3.org/Graphics/SVG/1.1/DTD/svg11.dtd">
<svg width="100%" height="100%" viewBox="0 0 48 48" version="1.1" xmlns="http://www.w3.org/2000/svg" xmlns:xlink="http://www.w3.org/1999/xlink" xml:space="preserve" xmlns:serif="http://www.serif.com/" style="fill-rule:evenodd;clip-rule:evenodd;stroke-linejoin:round;stroke-miterlimit:2;">
    <path d="M35.967,5C39.849,5 43,8.151 43,12.033L43,35.967C43,39.849 39.849,43 35.967,43L12.033,43C8.151,43 5,39.849 5,35.967L5,12.033C5,8.151 8.151,5 12.033,5L35.967,5ZM36.967,12.73C37.117,12.73 37.239,12.851 37.239,12.999L37.239,31.948C37.239,31.971 37.236,31.994 37.23,32.016L37.239,32.015L37.239,32.216L30.188,39.229L30.152,32.397L34.902,32.216L11.404,32.216C11.365,32.216 11.327,32.208 11.292,32.192C11.196,32.15 11.132,32.053 11.132,31.948C11.132,25.632 11.132,19.315 11.132,12.999C11.132,12.896 11.194,12.801 11.286,12.757C11.321,12.74 11.358,12.732 11.397,12.731L11.404,12.73L36.967,12.73ZM32.17,19.666L32.17,26.977L34.045,26.977L34.045,28.598L28.387,28.598L28.387,26.945L30.294,26.945L30.294,21.446L28.419,21.446L28.419,19.666L32.17,19.666Z" style="fill:white;"/>
</svg>
