<?xml version="1.0" encoding="UTF-8"?>
<!DOCTYPE svg  PUBLIC '-//W3C//DTD SVG 1.1//EN'  'http://www.w3.org/Graphics/SVG/1.1/DTD/svg11.dtd'>
<svg clip-rule="evenodd" fill-rule="evenodd" stroke-linejoin="round" stroke-miterlimit="2" version="1.1" viewBox="0 0 48 48" xml:space="preserve" xmlns="http://www.w3.org/2000/svg">
    <path d="m41 5c1.104 0 2 0.896 2 2v34c0 1.104-0.896 2-2 2h-34c-1.104 0-2-0.896-2-2v-34c0-1.104 0.896-2 2-2h34zm-6.227 19.308c0.7-1.267 4.036-7.655 3.588-13.608 0 0-0.03-0.936-1.056-1.084h-6.618s-1.645-0.175-1.792 1.379c-0.185 1.967-0.864 4.909-0.864 4.909s-0.485 1.446 0.451 2.35c0.423 0.408 1.596 1.599 2.806 2.835-1.094 2.198-2.534 4.206-4.266 5.946-1.728 1.73-3.745 3.162-5.932 4.255-1.242-1.215-2.44-2.395-2.85-2.82-0.903-0.936-2.35-0.451-2.35-0.451s-2.941 0.68-4.909 0.864c-1.552 0.148-1.378 1.793-1.378 1.793v6.616c0.147 1.025 1.084 1.056 1.084 1.056 5.778 0.435 11.966-2.693 13.483-3.517h1e-3c0.012-7e-3 0.025-0.014 0.036-0.021 0.204-0.111 0.313-0.175 0.313-0.175l-1e-3 -1e-3c4.278-2.461 7.821-6.026 10.256-10.325l-2e-3 -1e-3zm-20.653-7.645c0.207-1.133 0.829-1.85 2.009-2.009v5.749h-0.98v0.664h3.177v-0.653h-0.963v-5.788c0.796 0.121 1.531 0.461 1.942 1.943v-2.252h-5.185v2.346zm1.256 0.642h-1.566v1.566h1.566v-1.566zm4.139 0h-1.566v1.566h1.566v-1.566z" fill="#fff"/>
</svg>
